<svg width="433" height="433" viewBox="0 0 433 433" fill="none" xmlns="http://www.w3.org/2000/svg">
<circle cx="216.5" cy="216.5" r="211" fill="#FD9745" stroke="#272933" stroke-width="11"/>
<path d="M238.5 383.816C237.2 383.416 233.15 381.416 223 376.266C219.8 374.666 216 372.866 214.5 372.266C213 371.666 210.65 370.666 209.25 370.066C207.9 369.416 204.6 368.066 202 367.016C199.4 366.016 195.9 364.516 194.25 363.766C192.6 363.016 188.8 361.316 185.75 359.966C172.8 354.216 159.3 346.966 153.75 342.766C152.4 341.766 150.25 340.266 149 339.516C144.3 336.616 133.5 324.316 133.5 321.916C133.5 321.516 134.4 318.566 135.5 315.366C138.5 306.516 139 303.366 139 293.716V285.216L137.25 285.566C135.7 285.816 139 286.166 139 285.216C139 284.516 139 285.216 136.5 283.766C137.4 283.766 137.5 283.416 137.5 280.666C137.5 278.916 137.25 275.416 137 272.866C136.5 268.066 135.6 266.066 133.85 265.566C133.35 265.466 132.8 264.866 132.65 264.316C132.5 263.716 131.95 263.266 131.45 263.266C130.75 263.266 130.5 262.916 130.5 261.766C130.5 260.366 130.35 260.266 128.75 260.266C127.55 260.266 127 260.016 127 259.516C127 259.116 126.55 258.766 126 258.766C125.45 258.766 124.75 258.316 124.4 257.766C124.05 257.216 123.55 256.766 123.35 256.766C122.55 256.766 119.5 254.116 119.5 253.466C119.5 253.066 119.05 252.766 118.55 252.766C118 252.766 117 252.116 116.35 251.266C115.65 250.466 114.85 249.766 114.6 249.766C114 249.766 112 247.566 112 246.866C112 246.516 111.6 246.266 111.1 246.266C109.85 246.266 107 243.216 107 241.916C107 241.116 106.65 240.816 105.65 240.666C104.55 240.566 104.2 240.216 104.1 239.166C103.95 238.116 103.65 237.766 102.8 237.766C101.4 237.766 99.15 235.416 98.9 233.766C98.8 233.016 98.35 232.466 97.65 232.266C96.25 231.916 93 228.166 93 226.866C93 226.166 92.6 225.766 91.9 225.666C91.1 225.566 90.7 225.116 90.6 224.166C90.5 223.216 90.1 222.766 89.35 222.666C88.65 222.566 88.2 222.116 88.1 221.466C88 220.866 87.5 220.266 86.95 220.116C86.4 219.966 85.8 219.366 85.65 218.816C85.5 218.216 85.2 217.766 84.95 217.766C84.7 217.766 84.5 217.216 84.5 216.516C84.5 215.616 84.25 215.266 83.5 215.266C82.85 215.266 82.5 214.916 82.5 214.266C82.5 213.716 82.15 213.266 81.75 213.266C81.35 213.266 81 212.916 81 212.516C81 212.116 80.8 211.766 80.5 211.766C80.25 211.766 80 211.416 80 211.016C80 210.616 79.8 210.266 79.5 210.266C79.25 210.266 79 209.916 79 209.516C79 209.116 78.8 208.766 78.5 208.766C78.25 208.766 78 208.416 78 208.016C78 207.616 77.8 207.266 77.5 207.266C77.25 207.266 77 206.916 77 206.516C77 206.116 76.8 205.766 76.5 205.766C76.25 205.766 76 205.416 76 205.016C76 204.616 75.8 204.266 75.55 204.266C75.3 204.266 74.8 203.516 74.45 202.666C74.1 201.766 73.5 200.716 73.15 200.366C72.8 200.016 72.5 199.416 72.5 199.016C72.5 198.666 72.3 198.266 72.05 198.166C71.55 197.966 69 193.066 69 192.266C69 191.966 68.65 191.366 68.25 190.966C67.85 190.516 67.5 189.766 67.5 189.216C67.5 188.666 67.15 187.866 66.75 187.466C66.35 187.016 66 186.166 66 185.516C66 184.866 65.8 184.266 65.55 184.166C64.95 183.916 61.7 173.666 60.8 169.066C60.35 166.916 60 163.616 60 161.716C60 158.366 60.05 158.266 61.2 158.266C62.35 158.266 62.4 158.366 61.95 159.716C61 162.416 64.45 176.916 68.05 185.516C70.7 191.766 75.75 200.916 80.6 208.216C83.7 212.866 94 225.766 94.6 225.766C94.8 225.766 94.35 224.416 93.5 222.766C90.6 217.066 90.1 211.216 91.85 205.266C93.35 200.316 99.7 194.816 105.4 193.416C109.65 192.416 114.7 192.516 118.5 193.716C122.5 194.966 128.8 198.816 132.5 202.216C134 203.616 135.5 204.766 135.85 204.766C136.65 204.766 148.5 199.916 149.25 199.266C149.85 198.766 149.5 195.366 147.8 186.516C147.4 184.316 146.9 181.116 146.75 179.416L146.4 176.366L154.85 172.266C159.45 169.966 165.2 167.266 167.55 166.266C169.9 165.216 174.05 163.266 176.8 161.866C179.5 160.516 183.15 158.866 184.9 158.266C187.6 157.266 188.15 157.216 188.7 157.816C189.05 158.216 190.65 161.316 192.2 164.766C196.9 175.166 200.9 179.016 210 181.966C218.3 184.666 224.15 185.416 234.2 185.116C243.5 184.866 248.25 183.966 254.2 181.266C257.75 179.666 261.9 175.516 262.95 172.466C263.35 171.416 263.8 167.466 263.95 163.766L264.25 157.016L267.35 156.866C270.85 156.716 270.8 156.666 273.4 161.116C278.45 169.616 280 171.816 283.5 175.266C286.25 178.016 288.25 179.516 291 180.816C298.4 184.416 306.7 186.266 315.5 186.366C320.35 186.416 321 186.316 324.25 184.866C327.65 183.366 327.75 183.366 327.9 184.366C328.1 185.466 327.25 186.266 325.85 186.266C325.35 186.266 324.55 186.666 324.05 187.166C323.15 187.966 323.1 189.116 323.1 205.016C323.1 221.416 322.85 226.066 321 242.266C319.4 256.266 317.8 264.016 315.7 267.616C314.1 270.366 310.45 273.466 306.8 275.266C304.05 276.566 295.537 278.5 289.5 280.066L295.537 278.545C299.787 279.545 289.5 279.266 289.5 280.066C289.5 280.566 283.1 280.866 282.85 280.866C280.842 281.071 281.537 281 282.85 280.866C282 280.116 279.95 279.966 266.3 279.716C250.7 279.366 236.6 278.366 228.25 276.966C219.35 275.466 218.2 275.266 215.25 274.516C213.6 274.066 209.2 273.066 205.5 272.216C199.2 270.816 197 270.266 188.5 267.616C177.35 264.216 166 258.316 157.7 251.616C155.35 249.716 153.35 248.266 153.2 248.366C152.75 248.816 158.3 255.616 162.35 259.666C172.65 269.916 192.1 279.066 211.75 282.916C223.55 285.266 226.85 285.516 243.25 285.466C257.05 285.416 259.35 285.266 264.25 284.316C274.1 282.366 278.95 281.566 279.25 281.816C279.4 281.966 279.65 285.016 279.8 288.566C280.7 309.616 284.7 321.416 294.15 330.916C297.65 334.366 297.65 334.966 294.15 340.066C292.9 341.916 290.8 345.266 289.45 347.566C286.4 352.916 281.9 358.816 278.45 362.066C274.9 365.366 265.35 371.566 256.7 376.216C252.85 378.266 248.3 380.816 246.55 381.916C243.25 383.916 240.7 384.566 238.5 383.816ZM136.75 261.666C136.55 259.916 135.85 256.066 135.2 253.016C134.5 250.016 133.7 246.066 133.35 244.266L132.75 241.016L127 240.666C118.25 240.166 109.2 237.116 102.15 232.416C97.85 229.516 97.8 229.466 98.4 230.566C100.05 233.516 113.8 246.366 125.65 256.016C128.35 258.216 131.85 261.066 133.4 262.366C134.95 263.666 136.45 264.716 136.65 264.716C136.9 264.766 136.95 263.366 136.75 261.666Z" fill="#272933"/>
<path d="M238.5 383.816C237.2 383.416 233.15 381.416 223 376.266C219.8 374.666 216 372.866 214.5 372.266C213 371.666 210.65 370.666 209.25 370.066C207.9 369.416 204.6 368.066 202 367.016C199.4 366.016 195.9 364.516 194.25 363.766C192.6 363.016 188.8 361.316 185.75 359.966C172.8 354.216 159.3 346.966 153.75 342.766C152.4 341.766 150.25 340.266 149 339.516C144.3 336.616 133.5 324.316 133.5 321.916C133.5 321.516 134.4 318.566 135.5 315.366C138.5 306.516 139 303.366 139 293.716V285.216L137.25 285.566C135.7 285.816 139 286.166 139 285.216C139 284.516 139 285.216 136.5 283.766C137.4 283.766 137.5 283.416 137.5 280.666C137.5 278.916 137.25 275.416 137 272.866C136.5 268.066 135.6 266.066 133.85 265.566C133.35 265.466 132.8 264.866 132.65 264.316C132.5 263.716 131.95 263.266 131.45 263.266C130.75 263.266 130.5 262.916 130.5 261.766C130.5 260.366 130.35 260.266 128.75 260.266C127.55 260.266 127 260.016 127 259.516C127 259.116 126.55 258.766 126 258.766C125.45 258.766 124.75 258.316 124.4 257.766C124.05 257.216 123.55 256.766 123.35 256.766C122.55 256.766 119.5 254.116 119.5 253.466C119.5 253.066 119.05 252.766 118.55 252.766C118 252.766 117 252.116 116.35 251.266C115.65 250.466 114.85 249.766 114.6 249.766C114 249.766 112 247.566 112 246.866C112 246.516 111.6 246.266 111.1 246.266C109.85 246.266 107 243.216 107 241.916C107 241.116 106.65 240.816 105.65 240.666C104.55 240.566 104.2 240.216 104.1 239.166C103.95 238.116 103.65 237.766 102.8 237.766C101.4 237.766 99.15 235.416 98.9 233.766C98.8 233.016 98.35 232.466 97.65 232.266C96.25 231.916 93 228.166 93 226.866C93 226.166 92.6 225.766 91.9 225.666C91.1 225.566 90.7 225.116 90.6 224.166C90.5 223.216 90.1 222.766 89.35 222.666C88.65 222.566 88.2 222.116 88.1 221.466C88 220.866 87.5 220.266 86.95 220.116C86.4 219.966 85.8 219.366 85.65 218.816C85.5 218.216 85.2 217.766 84.95 217.766C84.7 217.766 84.5 217.216 84.5 216.516C84.5 215.616 84.25 215.266 83.5 215.266C82.85 215.266 82.5 214.916 82.5 214.266C82.5 213.716 82.15 213.266 81.75 213.266C81.35 213.266 81 212.916 81 212.516C81 212.116 80.8 211.766 80.5 211.766C80.25 211.766 80 211.416 80 211.016C80 210.616 79.8 210.266 79.5 210.266C79.25 210.266 79 209.916 79 209.516C79 209.116 78.8 208.766 78.5 208.766C78.25 208.766 78 208.416 78 208.016C78 207.616 77.8 207.266 77.5 207.266C77.25 207.266 77 206.916 77 206.516C77 206.116 76.8 205.766 76.5 205.766C76.25 205.766 76 205.416 76 205.016C76 204.616 75.8 204.266 75.55 204.266C75.3 204.266 74.8 203.516 74.45 202.666C74.1 201.766 73.5 200.716 73.15 200.366C72.8 200.016 72.5 199.416 72.5 199.016C72.5 198.666 72.3 198.266 72.05 198.166C71.55 197.966 69 193.066 69 192.266C69 191.966 68.65 191.366 68.25 190.966C67.85 190.516 67.5 189.766 67.5 189.216C67.5 188.666 67.15 187.866 66.75 187.466C66.35 187.016 66 186.166 66 185.516C66 184.866 65.8 184.266 65.55 184.166C64.95 183.916 61.7 173.666 60.8 169.066C60.35 166.916 60 163.616 60 161.716C60 158.366 60.05 158.266 61.2 158.266C62.35 158.266 62.4 158.366 61.95 159.716C61 162.416 64.45 176.916 68.05 185.516C70.7 191.766 75.75 200.916 80.6 208.216C83.7 212.866 94 225.766 94.6 225.766C94.8 225.766 94.35 224.416 93.5 222.766C90.6 217.066 90.1 211.216 91.85 205.266C93.35 200.316 99.7 194.816 105.4 193.416C109.65 192.416 114.7 192.516 118.5 193.716C122.5 194.966 128.8 198.816 132.5 202.216C134 203.616 135.5 204.766 135.85 204.766C136.65 204.766 148.5 199.916 149.25 199.266C149.85 198.766 149.5 195.366 147.8 186.516C147.4 184.316 146.9 181.116 146.75 179.416L146.4 176.366L154.85 172.266C159.45 169.966 165.2 167.266 167.55 166.266C169.9 165.216 174.05 163.266 176.8 161.866C179.5 160.516 183.15 158.866 184.9 158.266C187.6 157.266 188.15 157.216 188.7 157.816C189.05 158.216 190.65 161.316 192.2 164.766C196.9 175.166 200.9 179.016 210 181.966C218.3 184.666 224.15 185.416 234.2 185.116C243.5 184.866 248.25 183.966 254.2 181.266C257.75 179.666 261.9 175.516 262.95 172.466C263.35 171.416 263.8 167.466 263.95 163.766L264.25 157.016L267.35 156.866C270.85 156.716 270.8 156.666 273.4 161.116C278.45 169.616 280 171.816 283.5 175.266C286.25 178.016 288.25 179.516 291 180.816C298.4 184.416 306.7 186.266 315.5 186.366C320.35 186.416 321 186.316 324.25 184.866C327.65 183.366 327.75 183.366 327.9 184.366C328.1 185.466 327.25 186.266 325.85 186.266C325.35 186.266 324.55 186.666 324.05 187.166C323.15 187.966 323.1 189.116 323.1 205.016C323.1 221.416 322.85 226.066 321 242.266C319.4 256.266 317.8 264.016 315.7 267.616C314.1 270.366 310.45 273.466 306.8 275.266C304.05 276.566 295.537 278.5 289.5 280.066L295.537 278.545C299.787 279.545 289.5 279.266 289.5 280.066C289.5 280.566 283.1 280.866 282.85 280.866C280.842 281.071 281.537 281 282.85 280.866C282 280.116 279.95 279.966 266.3 279.716C250.7 279.366 236.6 278.366 228.25 276.966C219.35 275.466 218.2 275.266 215.25 274.516C213.6 274.066 209.2 273.066 205.5 272.216C199.2 270.816 197 270.266 188.5 267.616C177.35 264.216 166 258.316 157.7 251.616C155.35 249.716 153.35 248.266 153.2 248.366C152.75 248.816 158.3 255.616 162.35 259.666C172.65 269.916 192.1 279.066 211.75 282.916C223.55 285.266 226.85 285.516 243.25 285.466C257.05 285.416 259.35 285.266 264.25 284.316C274.1 282.366 278.95 281.566 279.25 281.816C279.4 281.966 279.65 285.016 279.8 288.566C280.7 309.616 284.7 321.416 294.15 330.916C297.65 334.366 297.65 334.966 294.15 340.066C292.9 341.916 290.8 345.266 289.45 347.566C286.4 352.916 281.9 358.816 278.45 362.066C274.9 365.366 265.35 371.566 256.7 376.216C252.85 378.266 248.3 380.816 246.55 381.916C243.25 383.916 240.7 384.566 238.5 383.816ZM136.75 261.666C136.55 259.916 135.85 256.066 135.2 253.016C134.5 250.016 133.7 246.066 133.35 244.266L132.75 241.016L127 240.666C118.25 240.166 109.2 237.116 102.15 232.416C97.85 229.516 97.8 229.466 98.4 230.566C100.05 233.516 113.8 246.366 125.65 256.016C128.35 258.216 131.85 261.066 133.4 262.366C134.95 263.666 136.45 264.716 136.65 264.716C136.9 264.766 136.95 263.366 136.75 261.666Z" fill="#272933"/>
<path d="M368.5 376.266C368.5 374.866 368.6 374.766 370.4 374.766H372.25L370.65 376.266C369.75 377.116 368.95 377.766 368.8 377.766C368.6 377.766 368.5 377.116 368.5 376.266Z" fill="#272933"/>
<path d="M368.5 376.266C368.5 374.866 368.6 374.766 370.4 374.766H372.25L370.65 376.266C369.75 377.116 368.95 377.766 368.8 377.766C368.6 377.766 368.5 377.116 368.5 376.266Z" fill="#272933"/>
<path d="M309.5 183.716C303.4 182.716 301.5 182.216 301.5 181.466C301.5 180.566 301.55 180.566 309.15 181.616C314.55 182.366 315.5 182.616 315.5 183.366C315.5 184.366 314.15 184.466 309.5 183.716Z" fill="#272933"/>
<path d="M309.5 183.716C303.4 182.716 301.5 182.216 301.5 181.466C301.5 180.566 301.55 180.566 309.15 181.616C314.55 182.366 315.5 182.616 315.5 183.366C315.5 184.366 314.15 184.466 309.5 183.716Z" fill="#272933"/>
<path d="M317 183.316C317 182.416 317.3 182.266 318.9 182.266C319.9 182.266 321.75 181.816 322.95 181.266C324.15 180.716 325.35 180.266 325.7 180.266C326.3 180.266 327.25 177.866 328.15 174.116C329.2 169.716 326.85 160.266 323.9 157.066C323.4 156.516 323 155.316 323 154.366C323 152.616 323 152.616 324.05 153.566C325.9 155.266 328.95 161.416 329.8 165.216C330.75 169.516 330.5 176.316 329.3 178.616C327.7 181.716 324.75 183.416 319.9 184.016C317.15 184.366 317 184.316 317 183.316Z" fill="#272933"/>
<path d="M317 183.316C317 182.416 317.3 182.266 318.9 182.266C319.9 182.266 321.75 181.816 322.95 181.266C324.15 180.716 325.35 180.266 325.7 180.266C326.3 180.266 327.25 177.866 328.15 174.116C329.2 169.716 326.85 160.266 323.9 157.066C323.4 156.516 323 155.316 323 154.366C323 152.616 323 152.616 324.05 153.566C325.9 155.266 328.95 161.416 329.8 165.216C330.75 169.516 330.5 176.316 329.3 178.616C327.7 181.716 324.75 183.416 319.9 184.016C317.15 184.366 317 184.316 317 183.316Z" fill="#272933"/>
<path d="M225.4 182.416C224.9 182.316 224.5 181.866 224.5 181.466C224.5 180.916 225.25 180.766 227.5 180.766C230.15 180.766 230.5 180.866 230.5 181.766C230.5 182.616 230.2 182.766 228.4 182.716C227.2 182.666 225.85 182.566 225.4 182.416Z" fill="#272933"/>
<path d="M225.4 182.416C224.9 182.316 224.5 181.866 224.5 181.466C224.5 180.916 225.25 180.766 227.5 180.766C230.15 180.766 230.5 180.866 230.5 181.766C230.5 182.616 230.2 182.766 228.4 182.716C227.2 182.666 225.85 182.566 225.4 182.416Z" fill="#272933"/>
<path d="M233 181.766C233 180.866 233.35 180.766 236.25 180.766C238.7 180.766 239.5 180.916 239.5 181.466C239.5 182.316 237.95 182.766 235.15 182.766C233.35 182.766 233 182.616 233 181.766Z" fill="#272933"/>
<path d="M233 181.766C233 180.866 233.35 180.766 236.25 180.766C238.7 180.766 239.5 180.916 239.5 181.466C239.5 182.316 237.95 182.766 235.15 182.766C233.35 182.766 233 182.616 233 181.766Z" fill="#272933"/>
<path d="M219.75 181.966C214.05 180.816 213.5 180.666 213.5 179.916C213.5 179.266 213.9 179.216 215.75 179.466C217 179.616 219 179.916 220.25 180.066C222 180.316 222.5 180.616 222.5 181.316C222.5 182.266 221.95 182.366 219.75 181.966Z" fill="#272933"/>
<path d="M219.75 181.966C214.05 180.816 213.5 180.666 213.5 179.916C213.5 179.266 213.9 179.216 215.75 179.466C217 179.616 219 179.916 220.25 180.066C222 180.316 222.5 180.616 222.5 181.316C222.5 182.266 221.95 182.366 219.75 181.966Z" fill="#272933"/>
<path d="M240 181.366C240 180.516 240.5 180.316 243.5 180.016C245.45 179.816 247 179.466 247 179.216C247 178.966 247.55 178.766 248.25 178.766C248.95 178.766 249.5 178.566 249.5 178.316C249.5 178.066 250.25 177.566 251.15 177.216C253.2 176.466 256.5 172.516 257.6 169.416C259.3 164.566 258.05 155.216 255.45 153.366C254.95 153.016 254.5 152.366 254.5 151.966C254.5 151.566 254.05 151.266 253.5 151.266C252.95 151.266 252.5 151.066 252.5 150.766C252.5 150.516 252.2 150.266 251.8 150.266C251.4 150.266 251 150.066 250.9 149.866C250.45 148.766 241.05 145.766 238.05 145.766C236.8 145.766 236.5 145.566 236.5 144.716C236.5 143.766 236.7 143.716 239.15 144.016C248.6 145.216 256 149.166 258.75 154.516C260.2 157.316 260.25 157.716 260.25 163.716C260.2 170.666 259.75 172.316 256.95 175.516C254.2 178.616 248.45 181.216 242.4 182.016C240.25 182.316 240 182.216 240 181.366Z" fill="#272933"/>
<path d="M240 181.366C240 180.516 240.5 180.316 243.5 180.016C245.45 179.816 247 179.466 247 179.216C247 178.966 247.55 178.766 248.25 178.766C248.95 178.766 249.5 178.566 249.5 178.316C249.5 178.066 250.25 177.566 251.15 177.216C253.2 176.466 256.5 172.516 257.6 169.416C259.3 164.566 258.05 155.216 255.45 153.366C254.95 153.016 254.5 152.366 254.5 151.966C254.5 151.566 254.05 151.266 253.5 151.266C252.95 151.266 252.5 151.066 252.5 150.766C252.5 150.516 252.2 150.266 251.8 150.266C251.4 150.266 251 150.066 250.9 149.866C250.45 148.766 241.05 145.766 238.05 145.766C236.8 145.766 236.5 145.566 236.5 144.716C236.5 143.766 236.7 143.716 239.15 144.016C248.6 145.216 256 149.166 258.75 154.516C260.2 157.316 260.25 157.716 260.25 163.716C260.2 170.666 259.75 172.316 256.95 175.516C254.2 178.616 248.45 181.216 242.4 182.016C240.25 182.316 240 182.216 240 181.366Z" fill="#272933"/>
<path d="M298.5 181.416C296.4 180.666 291.4 177.966 290.65 177.166C289.9 176.316 289.95 176.266 291.65 176.266C292.95 176.266 293.5 176.466 293.5 177.016C293.5 177.466 293.95 177.766 294.75 177.766C295.45 177.766 296 177.966 296 178.216C296 178.466 296.8 178.816 297.75 178.966C299.2 179.266 299.5 179.516 299.5 180.516C299.5 181.216 299.45 181.766 299.4 181.716C299.3 181.716 298.9 181.566 298.5 181.416Z" fill="#272933"/>
<path d="M298.5 181.416C296.4 180.666 291.4 177.966 290.65 177.166C289.9 176.316 289.95 176.266 291.65 176.266C292.95 176.266 293.5 176.466 293.5 177.016C293.5 177.466 293.95 177.766 294.75 177.766C295.45 177.766 296 177.966 296 178.216C296 178.466 296.8 178.816 297.75 178.966C299.2 179.266 299.5 179.516 299.5 180.516C299.5 181.216 299.45 181.766 299.4 181.716C299.3 181.716 298.9 181.566 298.5 181.416Z" fill="#272933"/>
<path d="M209.75 179.116C205.55 177.216 204.35 176.466 201.85 174.016C199 171.166 195.75 164.716 195.25 160.916C194.95 158.466 195 158.266 195.95 158.266C196.75 158.266 197 158.566 197 159.516C197 160.216 197.45 161.916 198 163.366C198.55 164.816 199 166.516 199 167.166C199 167.816 199.3 168.266 199.75 168.266C200.15 168.266 200.5 168.616 200.5 169.016C200.5 169.416 200.75 169.766 201 169.766C201.3 169.766 201.5 170.166 201.5 170.716C201.5 171.216 201.95 171.766 202.5 171.916C203.2 172.066 203.5 172.616 203.5 173.466C203.5 174.566 203.7 174.766 205 174.766C206 174.766 206.5 175.016 206.5 175.516C206.5 175.966 206.95 176.266 207.75 176.266C208.55 176.266 209 176.566 209 177.016C209 177.516 209.55 177.766 210.75 177.766C212.3 177.766 212.5 177.916 212.5 179.016C212.5 179.716 212.45 180.266 212.4 180.266C212.3 180.216 211.15 179.716 209.75 179.116Z" fill="#272933"/>
<path d="M209.75 179.116C205.55 177.216 204.35 176.466 201.85 174.016C199 171.166 195.75 164.716 195.25 160.916C194.95 158.466 195 158.266 195.95 158.266C196.75 158.266 197 158.566 197 159.516C197 160.216 197.45 161.916 198 163.366C198.55 164.816 199 166.516 199 167.166C199 167.816 199.3 168.266 199.75 168.266C200.15 168.266 200.5 168.616 200.5 169.016C200.5 169.416 200.75 169.766 201 169.766C201.3 169.766 201.5 170.166 201.5 170.716C201.5 171.216 201.95 171.766 202.5 171.916C203.2 172.066 203.5 172.616 203.5 173.466C203.5 174.566 203.7 174.766 205 174.766C206 174.766 206.5 175.016 206.5 175.516C206.5 175.966 206.95 176.266 207.75 176.266C208.55 176.266 209 176.566 209 177.016C209 177.516 209.55 177.766 210.75 177.766C212.3 177.766 212.5 177.916 212.5 179.016C212.5 179.716 212.45 180.266 212.4 180.266C212.3 180.216 211.15 179.716 209.75 179.116Z" fill="#272933"/>
<path d="M331.75 177.166C332.35 172.966 332.6 172.266 333.3 172.266C334.05 172.266 334.2 174.166 333.7 177.416C333.45 178.816 333.15 179.266 332.4 179.266C331.5 179.266 331.45 179.016 331.75 177.166Z" fill="#272933"/>
<path d="M331.75 177.166C332.35 172.966 332.6 172.266 333.3 172.266C334.05 172.266 334.2 174.166 333.7 177.416C333.45 178.816 333.15 179.266 332.4 179.266C331.5 179.266 331.45 179.016 331.75 177.166Z" fill="#272933"/>
<path d="M286.45 173.816C284.4 172.016 281 167.516 281 166.616C281 166.416 281.55 166.266 282.25 166.266C283.05 166.266 283.5 166.566 283.5 167.016C283.5 167.416 283.75 167.766 284 167.766C284.3 167.766 284.5 167.966 284.5 168.216C284.5 168.466 285.55 169.716 286.8 170.916C288.6 172.666 289.05 173.416 288.9 174.516L288.75 175.866L286.45 173.816Z" fill="#272933"/>
<path d="M286.45 173.816C284.4 172.016 281 167.516 281 166.616C281 166.416 281.55 166.266 282.25 166.266C283.05 166.266 283.5 166.566 283.5 167.016C283.5 167.416 283.75 167.766 284 167.766C284.3 167.766 284.5 167.966 284.5 168.216C284.5 168.466 285.55 169.716 286.8 170.916C288.6 172.666 289.05 173.416 288.9 174.516L288.75 175.866L286.45 173.816Z" fill="#272933"/>
<path d="M145.2 170.516C144.45 168.616 145.35 163.916 147.1 160.216C148.95 156.316 150.65 149.616 151.3 143.766C151.5 141.966 151.85 139.966 152.05 139.366C152.3 138.716 155.85 134.666 160 130.366C164.1 126.016 168.35 121.116 169.45 119.416C170.55 117.666 171.7 116.266 172 116.266C172.25 116.266 172.85 116.966 173.3 117.866C175.05 121.216 181.2 125.216 183.7 124.566C185.3 124.166 193.1 118.916 196.75 115.816C198.35 114.416 200 113.266 200.35 113.266C200.8 113.266 201 113.966 201 115.266C201 116.416 201.35 117.966 201.7 118.716C202.7 120.566 205.8 123.266 207 123.266C208.5 123.266 216.4 117.666 220.4 113.766C224.05 110.216 225.15 109.716 225.35 111.566C225.4 112.066 225.6 113.966 225.75 115.766C226.2 120.366 226.4 120.566 229.05 119.366C231.15 118.466 234.4 115.316 241.8 107.116C245.2 103.366 244.6 103.516 251.25 105.066C256.95 106.366 270.2 114.116 283.1 123.666C285.75 125.616 288.8 127.666 289.95 128.216C291.05 128.816 292 129.366 292 129.466C292 129.616 290.7 130.066 289.15 130.516C283.45 132.166 278.55 134.316 277.5 135.616C276.3 137.166 276.2 139.416 277.35 140.316C279.1 141.816 287 140.366 297.85 136.516C298.7 136.216 295.75 131.466 293.9 130.116C292.7 129.266 292.5 128.716 292.5 126.816C292.5 124.816 292.8 124.116 294.75 121.766C296 120.266 297.8 117.516 298.75 115.716C300.65 112.066 302.3 110.866 304.15 111.816C305.7 112.616 307 114.316 307 115.666C307 116.416 307.3 116.766 308 116.766C308.55 116.766 309.15 116.466 309.25 116.166C309.75 114.866 309.8 109.966 309.35 107.516C308.65 103.466 303.7 94.5658 299.5 89.7658L298 88.0158L299.3 87.8658C300.8 87.6658 303.5 90.1658 303.5 91.7658C303.5 92.3158 303.85 92.7658 304.25 92.7658C304.65 92.7658 305 93.1158 305 93.5158C305 93.9158 305.2 94.2658 305.5 94.2658C305.75 94.2658 306.1 94.8158 306.3 95.5158C306.45 96.2158 306.8 96.7658 307 96.7658C307.2 96.7658 308.25 98.4658 309.3 100.616C311.2 104.316 311.25 104.566 311.45 110.616C311.6 116.016 311.5 116.766 310.8 116.766C310.35 116.766 310 117.166 310 117.766C310 118.616 309.65 118.766 308 118.766C306.35 118.766 306 118.616 306 117.766C306 117.216 305.8 116.766 305.5 116.766C305.25 116.766 305 116.416 305 116.016C305 115.616 304.5 114.766 303.95 114.216C302.75 113.016 302.75 113.016 300.9 116.516C300.35 117.616 299.7 118.616 299.55 118.766C299.35 118.916 298.95 119.616 298.65 120.416C298.3 121.166 297.8 121.766 297.5 121.766C297.25 121.766 297 122.066 297 122.466C297 122.866 296.4 123.666 295.7 124.216C294.5 125.166 294.45 125.416 294.75 127.966C295.1 130.566 295.2 130.716 296.6 130.866C298.15 131.016 298.35 131.316 301.25 137.366C301.95 138.916 302.95 140.516 303.4 140.916C303.85 141.316 306.15 142.016 308.5 142.466C313.15 143.416 315.2 143.966 318.4 145.116C320.05 145.716 320.5 146.166 320.5 147.066V148.266L317.9 147.216C310.2 144.166 303.6 143.066 294.75 143.416C290.9 143.616 286.35 144.066 284.6 144.466C281 145.366 276.35 147.616 274 149.616C272.55 150.816 271.8 151.016 268.65 151.166C263.5 151.466 262.1 151.066 257.75 148.216C253.5 145.416 249.95 143.716 246.4 142.866C239.3 141.116 224.15 140.116 214.65 140.816C203.6 141.566 197.8 143.216 192.4 147.066C190.65 148.266 185.2 151.266 180.25 153.766C175.3 156.216 165.75 161.166 159 164.766C152.25 168.316 146.45 171.266 146.1 171.266C145.75 171.266 145.35 170.916 145.2 170.516ZM241.9 137.516C243.7 136.016 243.55 134.716 241.45 133.216C239.35 131.716 231.15 129.116 221.9 126.966C214.35 125.166 213.2 125.066 206 125.016C197.4 125.016 193.65 125.816 187.85 128.916C182.7 131.616 180 136.316 182.6 137.966C183.3 138.416 183.85 138.116 185.6 136.416C188.6 133.466 194.3 130.916 199.4 130.216C204.5 129.466 208.2 130.116 220.35 133.866C230.15 136.866 237.2 138.666 239.1 138.716C239.8 138.766 241.1 138.216 241.9 137.516Z" fill="#272933"/>
<path d="M145.2 170.516C144.45 168.616 145.35 163.916 147.1 160.216C148.95 156.316 150.65 149.616 151.3 143.766C151.5 141.966 151.85 139.966 152.05 139.366C152.3 138.716 155.85 134.666 160 130.366C164.1 126.016 168.35 121.116 169.45 119.416C170.55 117.666 171.7 116.266 172 116.266C172.25 116.266 172.85 116.966 173.3 117.866C175.05 121.216 181.2 125.216 183.7 124.566C185.3 124.166 193.1 118.916 196.75 115.816C198.35 114.416 200 113.266 200.35 113.266C200.8 113.266 201 113.966 201 115.266C201 116.416 201.35 117.966 201.7 118.716C202.7 120.566 205.8 123.266 207 123.266C208.5 123.266 216.4 117.666 220.4 113.766C224.05 110.216 225.15 109.716 225.35 111.566C225.4 112.066 225.6 113.966 225.75 115.766C226.2 120.366 226.4 120.566 229.05 119.366C231.15 118.466 234.4 115.316 241.8 107.116C245.2 103.366 244.6 103.516 251.25 105.066C256.95 106.366 270.2 114.116 283.1 123.666C285.75 125.616 288.8 127.666 289.95 128.216C291.05 128.816 292 129.366 292 129.466C292 129.616 290.7 130.066 289.15 130.516C283.45 132.166 278.55 134.316 277.5 135.616C276.3 137.166 276.2 139.416 277.35 140.316C279.1 141.816 287 140.366 297.85 136.516C298.7 136.216 295.75 131.466 293.9 130.116C292.7 129.266 292.5 128.716 292.5 126.816C292.5 124.816 292.8 124.116 294.75 121.766C296 120.266 297.8 117.516 298.75 115.716C300.65 112.066 302.3 110.866 304.15 111.816C305.7 112.616 307 114.316 307 115.666C307 116.416 307.3 116.766 308 116.766C308.55 116.766 309.15 116.466 309.25 116.166C309.75 114.866 309.8 109.966 309.35 107.516C308.65 103.466 303.7 94.5658 299.5 89.7658L298 88.0158L299.3 87.8658C300.8 87.6658 303.5 90.1658 303.5 91.7658C303.5 92.3158 303.85 92.7658 304.25 92.7658C304.65 92.7658 305 93.1158 305 93.5158C305 93.9158 305.2 94.2658 305.5 94.2658C305.75 94.2658 306.1 94.8158 306.3 95.5158C306.45 96.2158 306.8 96.7658 307 96.7658C307.2 96.7658 308.25 98.4658 309.3 100.616C311.2 104.316 311.25 104.566 311.45 110.616C311.6 116.016 311.5 116.766 310.8 116.766C310.35 116.766 310 117.166 310 117.766C310 118.616 309.65 118.766 308 118.766C306.35 118.766 306 118.616 306 117.766C306 117.216 305.8 116.766 305.5 116.766C305.25 116.766 305 116.416 305 116.016C305 115.616 304.5 114.766 303.95 114.216C302.75 113.016 302.75 113.016 300.9 116.516C300.35 117.616 299.7 118.616 299.55 118.766C299.35 118.916 298.95 119.616 298.65 120.416C298.3 121.166 297.8 121.766 297.5 121.766C297.25 121.766 297 122.066 297 122.466C297 122.866 296.4 123.666 295.7 124.216C294.5 125.166 294.45 125.416 294.75 127.966C295.1 130.566 295.2 130.716 296.6 130.866C298.15 131.016 298.35 131.316 301.25 137.366C301.95 138.916 302.95 140.516 303.4 140.916C303.85 141.316 306.15 142.016 308.5 142.466C313.15 143.416 315.2 143.966 318.4 145.116C320.05 145.716 320.5 146.166 320.5 147.066V148.266L317.9 147.216C310.2 144.166 303.6 143.066 294.75 143.416C290.9 143.616 286.35 144.066 284.6 144.466C281 145.366 276.35 147.616 274 149.616C272.55 150.816 271.8 151.016 268.65 151.166C263.5 151.466 262.1 151.066 257.75 148.216C253.5 145.416 249.95 143.716 246.4 142.866C239.3 141.116 224.15 140.116 214.65 140.816C203.6 141.566 197.8 143.216 192.4 147.066C190.65 148.266 185.2 151.266 180.25 153.766C175.3 156.216 165.75 161.166 159 164.766C152.25 168.316 146.45 171.266 146.1 171.266C145.75 171.266 145.35 170.916 145.2 170.516ZM241.9 137.516C243.7 136.016 243.55 134.716 241.45 133.216C239.35 131.716 231.15 129.116 221.9 126.966C214.35 125.166 213.2 125.066 206 125.016C197.4 125.016 193.65 125.816 187.85 128.916C182.7 131.616 180 136.316 182.6 137.966C183.3 138.416 183.85 138.116 185.6 136.416C188.6 133.466 194.3 130.916 199.4 130.216C204.5 129.466 208.2 130.116 220.35 133.866C230.15 136.866 237.2 138.666 239.1 138.716C239.8 138.766 241.1 138.216 241.9 137.516Z" fill="#272933"/>
<path d="M278.75 162.416C276.8 158.316 276.15 154.016 277.15 151.716C278.35 148.866 283.55 146.866 292.4 145.966C295.25 145.666 295.5 145.716 295.5 146.616C295.5 147.466 295.05 147.666 292.25 147.916C287.6 148.366 282.85 149.366 282.1 150.116C281.75 150.466 281.15 150.766 280.8 150.766C280.45 150.766 279.75 151.516 279.25 152.466C278.4 154.016 278.4 154.466 278.95 156.616C279.3 157.916 279.7 159.616 279.85 160.416C280 161.166 280.3 161.766 280.55 161.766C280.8 161.766 281 162.566 281 163.516C281 164.466 280.8 165.266 280.55 165.266C280.3 165.266 279.5 163.966 278.75 162.416Z" fill="#272933"/>
<path d="M278.75 162.416C276.8 158.316 276.15 154.016 277.15 151.716C278.35 148.866 283.55 146.866 292.4 145.966C295.25 145.666 295.5 145.716 295.5 146.616C295.5 147.466 295.05 147.666 292.25 147.916C287.6 148.366 282.85 149.366 282.1 150.116C281.75 150.466 281.15 150.766 280.8 150.766C280.45 150.766 279.75 151.516 279.25 152.466C278.4 154.016 278.4 154.466 278.95 156.616C279.3 157.916 279.7 159.616 279.85 160.416C280 161.166 280.3 161.766 280.55 161.766C280.8 161.766 281 162.566 281 163.516C281 164.466 280.8 165.266 280.55 165.266C280.3 165.266 279.5 163.966 278.75 162.416Z" fill="#272933"/>
<path d="M332 160.416C331.15 156.316 330.05 154.266 327.65 152.516C326.5 151.716 325.55 150.866 325.55 150.666C325.5 150.416 326.25 150.266 327.2 150.266C330.7 150.266 333.15 154.016 333.85 160.416C334.1 162.816 334 163.266 333.35 163.266C332.8 163.266 332.4 162.466 332 160.416Z" fill="#272933"/>
<path d="M332 160.416C331.15 156.316 330.05 154.266 327.65 152.516C326.5 151.716 325.55 150.866 325.55 150.666C325.5 150.416 326.25 150.266 327.2 150.266C330.7 150.266 333.15 154.016 333.85 160.416C334.1 162.816 334 163.266 333.35 163.266C332.8 163.266 332.4 162.466 332 160.416Z" fill="#272933"/>
<path d="M62 155.516C62 153.966 62.15 153.766 63.25 153.766C64.7 153.766 64.75 153.866 63.75 155.766C62.7 157.766 62 157.666 62 155.516Z" fill="#272933"/>
<path d="M62 155.516C62 153.966 62.15 153.766 63.25 153.766C64.7 153.766 64.75 153.866 63.75 155.766C62.7 157.766 62 157.666 62 155.516Z" fill="#272933"/>
<path d="M195 155.416C195 149.766 198.25 146.766 206.6 144.766C211.75 143.516 212.5 143.516 212.5 144.666C212.5 145.366 211.8 145.666 209.15 146.166C207.25 146.516 204.55 147.366 203.05 148.016C201.6 148.716 200.05 149.266 199.7 149.266C199.3 149.266 199 149.616 199 150.016C199 150.366 198.65 150.916 198.25 151.166C197.8 151.416 197.35 152.616 197.15 154.166C196.9 156.266 196.7 156.766 195.95 156.766C195.25 156.766 195 156.416 195 155.416Z" fill="#272933"/>
<path d="M195 155.416C195 149.766 198.25 146.766 206.6 144.766C211.75 143.516 212.5 143.516 212.5 144.666C212.5 145.366 211.8 145.666 209.15 146.166C207.25 146.516 204.55 147.366 203.05 148.016C201.6 148.716 200.05 149.266 199.7 149.266C199.3 149.266 199 149.616 199 150.016C199 150.366 198.65 150.916 198.25 151.166C197.8 151.416 197.35 152.616 197.15 154.166C196.9 156.266 196.7 156.766 195.95 156.766C195.25 156.766 195 156.416 195 155.416Z" fill="#272933"/>
<path d="M317.45 151.266C314.75 149.866 308.75 148.266 304.65 147.916C301.45 147.666 301 147.516 301 146.616C301 145.666 301.25 145.666 304.65 145.966C311.9 146.616 320.1 149.216 321.95 151.466C322.55 152.166 322.4 152.266 320.95 152.266C320 152.216 318.45 151.766 317.45 151.266Z" fill="#272933"/>
<path d="M317.45 151.266C314.75 149.866 308.75 148.266 304.65 147.916C301.45 147.666 301 147.516 301 146.616C301 145.666 301.25 145.666 304.65 145.966C311.9 146.616 320.1 149.216 321.95 151.466C322.55 152.166 322.4 152.266 320.95 152.266C320 152.216 318.45 151.766 317.45 151.266Z" fill="#272933"/>
<path d="M322.4 149.366C320.55 148.266 320.65 147.766 322.75 147.766C324.3 147.766 324.5 147.916 324.5 149.016C324.5 150.466 324.2 150.516 322.4 149.366Z" fill="#272933"/>
<path d="M322.4 149.366C320.55 148.266 320.65 147.766 322.75 147.766C324.3 147.766 324.5 147.916 324.5 149.016C324.5 150.466 324.2 150.516 322.4 149.366Z" fill="#272933"/>
<path d="M66 148.316C66 146.066 66.5 145.266 67.8 145.266C69.25 145.266 69.25 145.416 67.9 147.816C66.6 150.116 66 150.316 66 148.316Z" fill="#272933"/>
<path d="M66 148.316C66 146.066 66.5 145.266 67.8 145.266C69.25 145.266 69.25 145.416 67.9 147.816C66.6 150.116 66 150.316 66 148.316Z" fill="#272933"/>
<path d="M213.5 144.566C213.5 143.816 215 143.266 217.15 143.266C218.15 143.266 218.5 143.516 218.5 144.266C218.5 145.116 218.15 145.266 216 145.266C214.2 145.266 213.5 145.066 213.5 144.566Z" fill="#272933"/>
<path d="M213.5 144.566C213.5 143.816 215 143.266 217.15 143.266C218.15 143.266 218.5 143.516 218.5 144.266C218.5 145.116 218.15 145.266 216 145.266C214.2 145.266 213.5 145.066 213.5 144.566Z" fill="#272933"/>
<path d="M228.5 144.266C228.5 143.216 229.65 142.966 231.9 143.566C233.95 144.116 233.2 145.266 230.75 145.266C228.85 145.266 228.5 145.116 228.5 144.266Z" fill="#272933"/>
<path d="M228.5 144.266C228.5 143.216 229.65 142.966 231.9 143.566C233.95 144.116 233.2 145.266 230.75 145.266C228.85 145.266 228.5 145.116 228.5 144.266Z" fill="#272933"/>
<path d="M70 141.016C70 140.066 70.2 139.266 70.45 139.266C70.7 139.266 71.05 138.716 71.2 138.016C71.4 137.316 71.75 136.766 72 136.766C72.3 136.766 72.5 136.416 72.5 136.016C72.5 135.616 72.7 135.266 72.95 135.266C73.2 135.266 73.55 134.716 73.7 134.016C73.9 133.316 74.25 132.766 74.5 132.766C74.8 132.766 75 132.416 75 132.016C75 131.566 75.35 131.116 75.75 130.966C76.15 130.766 76.5 130.366 76.5 129.966C76.5 129.566 76.75 129.266 77 129.266C77.3 129.266 77.5 128.916 77.5 128.516C77.5 128.116 77.75 127.766 78 127.766C78.3 127.766 78.5 127.416 78.5 127.016C78.5 126.616 78.85 126.266 79.25 126.266C79.65 126.266 80 125.816 80 125.266C80 124.716 80.35 124.116 80.75 123.966C81.15 123.766 81.5 123.366 81.5 122.966C81.5 122.566 82 122.266 82.75 122.266C83.8 122.266 84 122.016 84 120.766C84 119.816 84.25 119.266 84.7 119.266C85.1 119.266 85.5 118.766 85.6 118.166C85.7 117.266 86.15 116.966 87.35 116.866C88.8 116.716 88.95 116.516 89.1 114.866C89.2 113.366 89.5 112.966 90.4 112.866C91.15 112.766 91.5 112.366 91.5 111.616C91.5 110.316 99.4 102.266 100.65 102.266C101.1 102.266 101.5 101.766 101.6 101.166C101.7 100.266 102.1 99.9656 103.6 99.8656C105.25 99.7156 105.45 99.5656 105.6 98.1156C105.75 96.7156 105.95 96.5156 107.35 96.3656C108.65 96.2156 108.95 95.9656 109.1 94.8656C109.2 93.9156 109.6 93.4656 110.3 93.3656C110.9 93.2656 111.5 92.7656 111.65 92.2156C111.8 91.6656 112.35 91.2656 112.95 91.2656C113.6 91.2656 114 90.9656 114 90.4656C114 90.0156 114.45 89.5656 115 89.4156C115.55 89.2656 116 88.9656 116 88.7156C116 88.4656 116.4 88.2656 116.95 88.2656C117.45 88.2656 118 87.8156 118.15 87.2656C118.3 86.7156 118.75 86.2656 119.2 86.2656C119.65 86.2656 120 86.0656 120 85.7656C120 85.5156 120.45 85.2656 121 85.2656C121.55 85.2656 122 84.9156 122 84.5156C122 84.1156 122.35 83.7656 122.75 83.7656C123.15 83.7656 123.5 83.5656 123.5 83.2656C123.5 83.0156 123.85 82.7656 124.25 82.7656C124.65 82.7656 125 82.5656 125 82.2656C125 82.0156 125.7 81.7656 126.5 81.7656C127.65 81.7656 128 81.5656 128 80.7656C128 80.0156 128.35 79.7656 129.25 79.7656C130.05 79.7656 130.5 79.4656 130.5 79.0156C130.5 78.5656 130.95 78.2656 131.75 78.2656C132.55 78.2656 133 77.9656 133 77.5156C133 77.0656 133.45 76.7656 134.25 76.7656C135 76.7656 135.5 76.4656 135.5 76.0656C135.5 75.3156 136.55 74.7656 138.05 74.7656C138.55 74.7656 139 74.4656 139 74.0656C139 73.2656 140.05 72.7656 141.8 72.7656C142.5 72.7656 143 72.4656 143 72.0656C143 71.2156 144.1 70.7656 146.05 70.7656C148.15 70.7656 147.85 71.5156 145.15 72.8156C141.05 74.7656 130.95 80.7656 125.75 84.3156C114 92.3156 104.65 100.316 94.65 111.016C85.15 121.166 79.6 128.416 72.2 140.366C71.4 141.716 70.6 142.766 70.4 142.766C70.15 142.766 70 141.966 70 141.016Z" fill="#272933"/>
<path d="M70 141.016C70 140.066 70.2 139.266 70.45 139.266C70.7 139.266 71.05 138.716 71.2 138.016C71.4 137.316 71.75 136.766 72 136.766C72.3 136.766 72.5 136.416 72.5 136.016C72.5 135.616 72.7 135.266 72.95 135.266C73.2 135.266 73.55 134.716 73.7 134.016C73.9 133.316 74.25 132.766 74.5 132.766C74.8 132.766 75 132.416 75 132.016C75 131.566 75.35 131.116 75.75 130.966C76.15 130.766 76.5 130.366 76.5 129.966C76.5 129.566 76.75 129.266 77 129.266C77.3 129.266 77.5 128.916 77.5 128.516C77.5 128.116 77.75 127.766 78 127.766C78.3 127.766 78.5 127.416 78.5 127.016C78.5 126.616 78.85 126.266 79.25 126.266C79.65 126.266 80 125.816 80 125.266C80 124.716 80.35 124.116 80.75 123.966C81.15 123.766 81.5 123.366 81.5 122.966C81.5 122.566 82 122.266 82.75 122.266C83.8 122.266 84 122.016 84 120.766C84 119.816 84.25 119.266 84.7 119.266C85.1 119.266 85.5 118.766 85.6 118.166C85.7 117.266 86.15 116.966 87.35 116.866C88.8 116.716 88.95 116.516 89.1 114.866C89.2 113.366 89.5 112.966 90.4 112.866C91.15 112.766 91.5 112.366 91.5 111.616C91.5 110.316 99.4 102.266 100.65 102.266C101.1 102.266 101.5 101.766 101.6 101.166C101.7 100.266 102.1 99.9656 103.6 99.8656C105.25 99.7156 105.45 99.5656 105.6 98.1156C105.75 96.7156 105.95 96.5156 107.35 96.3656C108.65 96.2156 108.95 95.9656 109.1 94.8656C109.2 93.9156 109.6 93.4656 110.3 93.3656C110.9 93.2656 111.5 92.7656 111.65 92.2156C111.8 91.6656 112.35 91.2656 112.95 91.2656C113.6 91.2656 114 90.9656 114 90.4656C114 90.0156 114.45 89.5656 115 89.4156C115.55 89.2656 116 88.9656 116 88.7156C116 88.4656 116.4 88.2656 116.95 88.2656C117.45 88.2656 118 87.8156 118.15 87.2656C118.3 86.7156 118.75 86.2656 119.2 86.2656C119.65 86.2656 120 86.0656 120 85.7656C120 85.5156 120.45 85.2656 121 85.2656C121.55 85.2656 122 84.9156 122 84.5156C122 84.1156 122.35 83.7656 122.75 83.7656C123.15 83.7656 123.5 83.5656 123.5 83.2656C123.5 83.0156 123.85 82.7656 124.25 82.7656C124.65 82.7656 125 82.5656 125 82.2656C125 82.0156 125.7 81.7656 126.5 81.7656C127.65 81.7656 128 81.5656 128 80.7656C128 80.0156 128.35 79.7656 129.25 79.7656C130.05 79.7656 130.5 79.4656 130.5 79.0156C130.5 78.5656 130.95 78.2656 131.75 78.2656C132.55 78.2656 133 77.9656 133 77.5156C133 77.0656 133.45 76.7656 134.25 76.7656C135 76.7656 135.5 76.4656 135.5 76.0656C135.5 75.3156 136.55 74.7656 138.05 74.7656C138.55 74.7656 139 74.4656 139 74.0656C139 73.2656 140.05 72.7656 141.8 72.7656C142.5 72.7656 143 72.4656 143 72.0656C143 71.2156 144.1 70.7656 146.05 70.7656C148.15 70.7656 147.85 71.5156 145.15 72.8156C141.05 74.7656 130.95 80.7656 125.75 84.3156C114 92.3156 104.65 100.316 94.65 111.016C85.15 121.166 79.6 128.416 72.2 140.366C71.4 141.716 70.6 142.766 70.4 142.766C70.15 142.766 70 141.966 70 141.016Z" fill="#272933"/>
<path d="M292.1 82.0653C290.7 80.2153 291 79.1653 293.65 76.4153C294.75 75.2153 295.55 74.1653 295.4 74.0153C295.25 73.8153 293.45 73.4653 291.4 73.2153C284.95 72.3653 276.5 70.2153 276.5 69.4653C276.5 68.5153 278.15 68.5653 283.2 69.7653C285.5 70.3153 289.5 71.0153 292 71.3653L296.6 71.9653L296.3 74.7153C296.05 76.6653 295.6 77.8653 294.75 78.7653C294.1 79.4653 293.5 80.7653 293.4 81.7653L293.25 83.5153L292.1 82.0653Z" fill="#272933"/>
<path d="M292.1 82.0653C290.7 80.2153 291 79.1653 293.65 76.4153C294.75 75.2153 295.55 74.1653 295.4 74.0153C295.25 73.8153 293.45 73.4653 291.4 73.2153C284.95 72.3653 276.5 70.2153 276.5 69.4653C276.5 68.5153 278.15 68.5653 283.2 69.7653C285.5 70.3153 289.5 71.0153 292 71.3653L296.6 71.9653L296.3 74.7153C296.05 76.6653 295.6 77.8653 294.75 78.7653C294.1 79.4653 293.5 80.7653 293.4 81.7653L293.25 83.5153L292.1 82.0653Z" fill="#272933"/>
<path d="M149 69.5156C149 68.4156 149.2 68.2656 150.8 68.2656C153 68.2656 152.9 69.1656 150.6 70.1156C149.05 70.7656 149 70.7156 149 69.5156Z" fill="#272933"/>
<path d="M149 69.5156C149 68.4156 149.2 68.2656 150.8 68.2656C153 68.2656 152.9 69.1656 150.6 70.1156C149.05 70.7656 149 70.7156 149 69.5156Z" fill="#272933"/>
<path d="M273.4 69.4156C271.75 69.0156 272.4 67.7656 274.25 67.7656C275.65 67.7656 276 67.9656 276 68.7656C276 69.7656 275.3 69.9156 273.4 69.4156Z" fill="#272933"/>
<path d="M273.4 69.4156C271.75 69.0156 272.4 67.7656 274.25 67.7656C275.65 67.7656 276 67.9656 276 68.7656C276 69.7656 275.3 69.9156 273.4 69.4156Z" fill="#272933"/>
<path d="M153.5 67.5156C153.5 66.4156 153.7 66.2656 155.25 66.2656C156.45 66.2656 157 66.0156 157 65.5156C157 65.0656 157.45 64.7656 158.25 64.7656C158.95 64.7656 159.5 64.5656 159.5 64.2656C159.5 64.0156 160.05 63.7656 160.75 63.7656C161.45 63.7656 162 63.5656 162 63.3656C162 62.8156 165.45 61.7656 167.2 61.7656C169.85 61.7656 168.2 62.9656 162.7 65.0656C159.7 66.2156 156.4 67.5156 155.4 67.9656L153.5 68.7656V67.5156Z" fill="#272933"/>
<path d="M153.5 67.5156C153.5 66.4156 153.7 66.2656 155.25 66.2656C156.45 66.2656 157 66.0156 157 65.5156C157 65.0656 157.45 64.7656 158.25 64.7656C158.95 64.7656 159.5 64.5656 159.5 64.2656C159.5 64.0156 160.05 63.7656 160.75 63.7656C161.45 63.7656 162 63.5656 162 63.3656C162 62.8156 165.45 61.7656 167.2 61.7656C169.85 61.7656 168.2 62.9656 162.7 65.0656C159.7 66.2156 156.4 67.5156 155.4 67.9656L153.5 68.7656V67.5156Z" fill="#272933"/>
<path d="M261.8 65.8657C254.95 63.5157 256.7 62.2156 263.8 64.4156C266.55 65.2156 267.5 65.7156 267.5 66.4156C267.5 67.5656 266.45 67.4657 261.8 65.8657Z" fill="#272933"/>
<path d="M261.8 65.8657C254.95 63.5157 256.7 62.2156 263.8 64.4156C266.55 65.2156 267.5 65.7156 267.5 66.4156C267.5 67.5656 266.45 67.4657 261.8 65.8657Z" fill="#272933"/>
<path d="M253.7 63.0656C252 62.4656 249.9 61.5156 248.95 60.9656C247.45 60.0656 247.25 59.7156 247.3 57.9656C247.3 56.9156 247.5 55.6156 247.7 55.1656C248 54.5156 247.8 54.2156 246.8 53.9656C244.9 53.5156 245.15 52.2656 247.15 52.2656C249.5 52.2656 250.15 52.8656 249.9 54.8156C249.75 55.7656 249.5 56.9156 249.3 57.3656C248.85 58.3656 250.85 59.7656 254.65 61.1656C256.5 61.8156 257 62.2156 257 63.1156C257 63.7656 256.95 64.2656 256.9 64.2156C256.8 64.2156 255.4 63.7156 253.7 63.0656Z" fill="#272933"/>
<path d="M253.7 63.0656C252 62.4656 249.9 61.5156 248.95 60.9656C247.45 60.0656 247.25 59.7156 247.3 57.9656C247.3 56.9156 247.5 55.6156 247.7 55.1656C248 54.5156 247.8 54.2156 246.8 53.9656C244.9 53.5156 245.15 52.2656 247.15 52.2656C249.5 52.2656 250.15 52.8656 249.9 54.8156C249.75 55.7656 249.5 56.9156 249.3 57.3656C248.85 58.3656 250.85 59.7656 254.65 61.1656C256.5 61.8156 257 62.2156 257 63.1156C257 63.7656 256.95 64.2656 256.9 64.2156C256.8 64.2156 255.4 63.7156 253.7 63.0656Z" fill="#272933"/>
<path d="M179.5 58.3656C179.5 57.3656 181.1 56.7656 183.8 56.7656C186.45 56.7656 184.65 58.4156 181.35 59.0156C179.7 59.3156 179.5 59.2656 179.5 58.3656Z" fill="#272933"/>
<path d="M179.5 58.3656C179.5 57.3656 181.1 56.7656 183.8 56.7656C186.45 56.7656 184.65 58.4156 181.35 59.0156C179.7 59.3156 179.5 59.2656 179.5 58.3656Z" fill="#272933"/>
<path d="M185.5 56.7656C185.5 55.9656 185.85 55.7656 187.25 55.7656C189.25 55.7656 189.7 56.9656 187.9 57.4656C186 57.9656 185.5 57.8156 185.5 56.7656Z" fill="#272933"/>
<path d="M185.5 56.7656C185.5 55.9656 185.85 55.7656 187.25 55.7656C189.25 55.7656 189.7 56.9656 187.9 57.4656C186 57.9656 185.5 57.8156 185.5 56.7656Z" fill="#272933"/>
<path d="M198 54.3153C198 53.6653 198.3 53.2653 198.9 53.2653C199.35 53.2653 200.95 53.1153 202.4 52.9653C204.55 52.6653 205 52.7653 205 53.4153C205 54.1653 204.4 54.4153 200.15 55.0153C198.2 55.3153 198 55.2653 198 54.3153Z" fill="#272933"/>
<path d="M198 54.3153C198 53.6653 198.3 53.2653 198.9 53.2653C199.35 53.2653 200.95 53.1153 202.4 52.9653C204.55 52.6653 205 52.7653 205 53.4153C205 54.1653 204.4 54.4153 200.15 55.0153C198.2 55.3153 198 55.2653 198 54.3153Z" fill="#272933"/>
<path d="M205.5 53.2656C205.5 52.4656 205.85 52.2656 207.25 52.2656C209.25 52.2656 209.7 53.4656 207.9 53.9656C206 54.4656 205.5 54.3156 205.5 53.2656Z" fill="#272933"/>
<path d="M205.5 53.2656C205.5 52.4656 205.85 52.2656 207.25 52.2656C209.25 52.2656 209.7 53.4656 207.9 53.9656C206 54.4656 205.5 54.3156 205.5 53.2656Z" fill="#272933"/>
<path d="M211.5 52.7656C211.5 51.9656 211.85 51.7656 213.25 51.7656C215.25 51.7656 215.7 52.9656 213.9 53.4656C212 53.9656 211.5 53.8156 211.5 52.7656Z" fill="#272933"/>
<path d="M211.5 52.7656C211.5 51.9656 211.85 51.7656 213.25 51.7656C215.25 51.7656 215.7 52.9656 213.9 53.4656C212 53.9656 211.5 53.8156 211.5 52.7656Z" fill="#272933"/>
<path d="M241.4 53.4156C239.75 53.0156 240.4 51.7656 242.25 51.7656C243.65 51.7656 244 51.9656 244 52.7656C244 53.7656 243.3 53.9156 241.4 53.4156Z" fill="#272933"/>
<path d="M241.4 53.4156C239.75 53.0156 240.4 51.7656 242.25 51.7656C243.65 51.7656 244 51.9656 244 52.7656C244 53.7656 243.3 53.9156 241.4 53.4156Z" fill="#272933"/>
<path d="M223 52.2656C223 51.3156 223.35 51.2656 228.5 51.2656C233.65 51.2656 234 51.3156 234 52.2656C234 53.2156 233.65 53.2656 228.5 53.2656C223.35 53.2656 223 53.2156 223 52.2656Z" fill="#272933"/>
<path d="M223 52.2656C223 51.3156 223.35 51.2656 228.5 51.2656C233.65 51.2656 234 51.3156 234 52.2656C234 53.2156 233.65 53.2656 228.5 53.2656C223.35 53.2656 223 53.2156 223 52.2656Z" fill="#272933"/>
</svg>
