<svg width="500" height="500" viewBox="0 0 500 500" fill="none" xmlns="http://www.w3.org/2000/svg">
<rect x="8" y="8" width="484" height="484" rx="20" fill="#FD9745" stroke="#272933" stroke-width="16"/>
<path d="M279.521 465.33C277.835 464.811 272.582 462.217 259.417 455.537C255.267 453.462 250.338 451.127 248.392 450.349C246.447 449.571 243.399 448.274 241.583 447.496C239.832 446.653 235.552 444.902 232.179 443.54C228.807 442.243 224.267 440.297 222.127 439.324C219.987 438.352 215.058 436.147 211.102 434.396C194.306 426.938 176.796 417.534 169.597 412.087C167.846 410.79 165.058 408.844 163.436 407.871C157.34 404.11 143.332 388.156 143.332 385.043C143.332 384.525 144.5 380.698 145.926 376.548C149.817 365.069 150.466 360.983 150.466 348.467V337.442L148.196 337.896C146.186 338.22 150.466 338.674 150.466 337.442C150.466 336.534 150.466 337.442 147.223 335.561C148.391 335.561 148.52 335.107 148.52 331.541C148.52 329.271 148.196 324.731 147.872 321.424C147.223 315.198 146.056 312.604 143.786 311.955C143.138 311.826 142.424 311.047 142.23 310.334C142.035 309.556 141.322 308.972 140.673 308.972C139.765 308.972 139.441 308.518 139.441 307.027C139.441 305.211 139.247 305.081 137.171 305.081C135.615 305.081 134.902 304.757 134.902 304.108C134.902 303.589 134.318 303.135 133.604 303.135C132.891 303.135 131.983 302.552 131.529 301.838C131.075 301.125 130.427 300.541 130.167 300.541C129.13 300.541 125.174 297.104 125.174 296.261C125.174 295.742 124.59 295.353 123.942 295.353C123.228 295.353 121.931 294.51 121.088 293.408C120.18 292.37 119.143 291.462 118.818 291.462C118.04 291.462 115.446 288.609 115.446 287.701C115.446 287.247 114.927 286.922 114.279 286.922C112.657 286.922 108.961 282.966 108.961 281.28C108.961 280.243 108.507 279.854 107.21 279.659C105.783 279.529 105.329 279.075 105.199 277.713C105.005 276.352 104.616 275.898 103.513 275.898C101.697 275.898 98.779 272.85 98.4548 270.709C98.3251 269.737 97.7414 269.023 96.8335 268.764C95.0176 268.31 90.8022 263.446 90.8022 261.76C90.8022 260.852 90.2834 260.333 89.3755 260.203C88.3379 260.074 87.8191 259.49 87.6894 258.258C87.5597 257.026 87.0408 256.442 86.0681 256.312C85.1601 256.183 84.5765 255.599 84.4468 254.756C84.3171 253.978 83.6685 253.199 82.9552 253.005C82.2418 252.81 81.4636 252.032 81.269 251.319C81.0745 250.541 80.6853 249.957 80.3611 249.957C80.0368 249.957 79.7774 249.244 79.7774 248.336C79.7774 247.168 79.4532 246.714 78.4804 246.714C77.6373 246.714 77.1833 246.26 77.1833 245.417C77.1833 244.704 76.7294 244.12 76.2106 244.12C75.6918 244.12 75.2378 243.666 75.2378 243.147C75.2378 242.629 74.9784 242.175 74.5893 242.175C74.265 242.175 73.9408 241.721 73.9408 241.202C73.9408 240.683 73.6813 240.229 73.2922 240.229C72.968 240.229 72.6437 239.775 72.6437 239.256C72.6437 238.738 72.3843 238.284 71.9952 238.284C71.6709 238.284 71.3467 237.83 71.3467 237.311C71.3467 236.792 71.0873 236.338 70.6982 236.338C70.3739 236.338 70.0496 235.884 70.0496 235.365C70.0496 234.846 69.7902 234.392 69.4011 234.392C69.0769 234.392 68.7526 233.938 68.7526 233.42C68.7526 232.901 68.4932 232.447 68.1689 232.447C67.8447 232.447 67.1962 231.474 66.7422 230.372C66.2882 229.204 65.51 227.842 65.056 227.388C64.6021 226.934 64.213 226.156 64.213 225.637C64.213 225.183 63.9536 224.665 63.6293 224.535C62.9808 224.276 59.6733 217.92 59.6733 216.882C59.6733 216.493 59.2194 215.715 58.7006 215.196C58.1817 214.613 57.7278 213.64 57.7278 212.926C57.7278 212.213 57.2738 211.175 56.755 210.657C56.2362 210.073 55.7822 208.971 55.7822 208.127C55.7822 207.284 55.5228 206.506 55.1986 206.376C54.4203 206.052 50.205 192.758 49.0376 186.791C48.454 184.003 48 179.722 48 177.258C48 172.913 48.0648 172.783 49.5564 172.783C51.048 172.783 51.1129 172.913 50.5292 174.664C49.297 178.166 53.7718 196.973 58.4412 208.127C61.8783 216.234 68.4284 228.102 74.719 237.57C78.7398 243.601 92.0993 260.333 92.8775 260.333C93.1369 260.333 92.5532 258.582 91.4508 256.442C87.6894 249.049 87.0408 241.461 89.3107 233.744C91.2562 227.324 99.4924 220.19 106.885 218.374C112.398 217.077 118.948 217.207 123.877 218.763C129.065 220.384 137.236 225.378 142.035 229.788C143.981 231.604 145.926 233.095 146.38 233.095C147.418 233.095 162.788 226.805 163.761 225.962C164.539 225.313 164.085 220.903 161.88 209.424C161.361 206.571 160.713 202.42 160.518 200.215L160.064 196.26L171.024 190.942C176.99 187.958 184.448 184.456 187.496 183.159C190.544 181.798 195.927 179.268 199.494 177.452C202.996 175.701 207.73 173.561 210 172.783C213.502 171.486 214.215 171.421 214.929 172.199C215.383 172.718 217.458 176.739 219.468 181.214C225.564 194.703 230.753 199.697 242.556 203.523C253.321 207.025 260.909 207.998 273.944 207.609C286.006 207.284 292.167 206.117 299.885 202.615C304.489 200.54 309.872 195.157 311.234 191.201C311.753 189.839 312.336 184.716 312.531 179.917L312.92 171.162L316.941 170.967C321.48 170.773 321.416 170.708 324.788 176.48C331.338 187.505 333.348 190.358 337.888 194.833C341.455 198.4 344.049 200.345 347.616 202.031C357.214 206.701 367.979 209.1 379.393 209.23C385.684 209.295 386.527 209.165 390.742 207.284C395.152 205.339 395.282 205.339 395.476 206.636C395.736 208.063 394.633 209.1 392.817 209.1C392.169 209.1 391.131 209.619 390.483 210.268C389.315 211.305 389.251 212.797 389.251 233.42C389.251 254.691 388.926 260.722 386.527 281.734C384.452 299.893 382.376 309.945 379.653 314.614C377.577 318.181 372.843 322.202 368.109 324.537C364.542 326.223 353.5 328.732 345.67 330.762L353.5 328.79C359.012 330.087 345.67 329.725 345.67 330.762C345.67 331.411 337.369 331.8 337.045 331.8C334.44 332.066 335.341 331.974 337.045 331.8C335.942 330.827 333.283 330.633 315.579 330.308C295.345 329.854 277.057 328.557 266.227 326.742C254.683 324.796 253.191 324.537 249.365 323.564C247.225 322.98 241.518 321.683 236.719 320.581C228.548 318.765 225.694 318.051 214.669 314.614C200.207 310.204 185.486 302.552 174.721 293.862C171.673 291.397 169.078 289.517 168.884 289.646C168.3 290.23 175.499 299.05 180.752 304.303C194.111 317.597 219.339 329.465 244.825 334.459C260.13 337.507 264.411 337.831 285.682 337.766C303.581 337.702 306.564 337.507 312.92 336.275C325.696 333.746 331.986 332.708 332.375 333.032C332.57 333.227 332.894 337.183 333.089 341.787C334.256 369.09 339.444 384.395 351.701 396.717C356.241 401.191 356.241 401.97 351.701 408.585C350.08 410.984 347.356 415.329 345.605 418.312C341.649 425.252 335.813 432.904 331.338 437.119C326.733 441.4 314.347 449.441 303.127 455.473C298.134 458.131 292.232 461.439 289.962 462.866C285.682 465.46 282.375 466.303 279.521 465.33ZM147.548 306.897C147.288 304.627 146.38 299.633 145.537 295.677C144.629 291.786 143.592 286.663 143.138 284.328L142.359 280.113L134.902 279.659C123.552 279.011 111.814 275.055 102.67 268.958C97.0929 265.197 97.028 265.132 97.8062 266.559C99.9463 270.385 117.781 287.052 133.151 299.569C136.653 302.422 141.192 306.119 143.203 307.805C145.213 309.491 147.159 310.853 147.418 310.853C147.742 310.918 147.807 309.102 147.548 306.897Z" fill="#272933"/>
<path d="M279.521 465.33C277.835 464.811 272.582 462.217 259.417 455.537C255.267 453.462 250.338 451.127 248.392 450.349C246.447 449.571 243.399 448.274 241.583 447.496C239.832 446.653 235.552 444.902 232.179 443.54C228.807 442.243 224.267 440.297 222.127 439.324C219.987 438.352 215.058 436.147 211.102 434.396C194.306 426.938 176.796 417.534 169.597 412.087C167.846 410.79 165.058 408.844 163.436 407.871C157.34 404.11 143.332 388.156 143.332 385.043C143.332 384.525 144.5 380.698 145.926 376.548C149.817 365.069 150.466 360.983 150.466 348.467V337.442L148.196 337.896C146.186 338.22 150.466 338.674 150.466 337.442C150.466 336.534 150.466 337.442 147.223 335.561C148.391 335.561 148.52 335.107 148.52 331.541C148.52 329.271 148.196 324.731 147.872 321.424C147.223 315.198 146.056 312.604 143.786 311.955C143.138 311.826 142.424 311.047 142.23 310.334C142.035 309.556 141.322 308.972 140.673 308.972C139.765 308.972 139.441 308.518 139.441 307.027C139.441 305.211 139.247 305.081 137.171 305.081C135.615 305.081 134.902 304.757 134.902 304.108C134.902 303.589 134.318 303.135 133.604 303.135C132.891 303.135 131.983 302.552 131.529 301.838C131.075 301.125 130.427 300.541 130.167 300.541C129.13 300.541 125.174 297.104 125.174 296.261C125.174 295.742 124.59 295.353 123.942 295.353C123.228 295.353 121.931 294.51 121.088 293.408C120.18 292.37 119.143 291.462 118.818 291.462C118.04 291.462 115.446 288.609 115.446 287.701C115.446 287.247 114.927 286.922 114.279 286.922C112.657 286.922 108.961 282.966 108.961 281.28C108.961 280.243 108.507 279.854 107.21 279.659C105.783 279.529 105.329 279.075 105.199 277.713C105.005 276.352 104.616 275.898 103.513 275.898C101.697 275.898 98.779 272.85 98.4548 270.709C98.3251 269.737 97.7414 269.023 96.8335 268.764C95.0176 268.31 90.8022 263.446 90.8022 261.76C90.8022 260.852 90.2834 260.333 89.3755 260.203C88.3379 260.074 87.8191 259.49 87.6894 258.258C87.5597 257.026 87.0408 256.442 86.0681 256.312C85.1601 256.183 84.5765 255.599 84.4468 254.756C84.3171 253.978 83.6685 253.199 82.9552 253.005C82.2418 252.81 81.4636 252.032 81.269 251.319C81.0745 250.541 80.6853 249.957 80.3611 249.957C80.0368 249.957 79.7774 249.244 79.7774 248.336C79.7774 247.168 79.4532 246.714 78.4804 246.714C77.6373 246.714 77.1833 246.26 77.1833 245.417C77.1833 244.704 76.7294 244.12 76.2106 244.12C75.6918 244.12 75.2378 243.666 75.2378 243.147C75.2378 242.629 74.9784 242.175 74.5893 242.175C74.265 242.175 73.9408 241.721 73.9408 241.202C73.9408 240.683 73.6813 240.229 73.2922 240.229C72.968 240.229 72.6437 239.775 72.6437 239.256C72.6437 238.738 72.3843 238.284 71.9952 238.284C71.6709 238.284 71.3467 237.83 71.3467 237.311C71.3467 236.792 71.0873 236.338 70.6982 236.338C70.3739 236.338 70.0496 235.884 70.0496 235.365C70.0496 234.846 69.7902 234.392 69.4011 234.392C69.0769 234.392 68.7526 233.938 68.7526 233.42C68.7526 232.901 68.4932 232.447 68.1689 232.447C67.8447 232.447 67.1962 231.474 66.7422 230.372C66.2882 229.204 65.51 227.842 65.056 227.388C64.6021 226.934 64.213 226.156 64.213 225.637C64.213 225.183 63.9536 224.665 63.6293 224.535C62.9808 224.276 59.6733 217.92 59.6733 216.882C59.6733 216.493 59.2194 215.715 58.7006 215.196C58.1817 214.613 57.7278 213.64 57.7278 212.926C57.7278 212.213 57.2738 211.175 56.755 210.657C56.2362 210.073 55.7822 208.971 55.7822 208.127C55.7822 207.284 55.5228 206.506 55.1986 206.376C54.4203 206.052 50.205 192.758 49.0376 186.791C48.454 184.003 48 179.722 48 177.258C48 172.913 48.0648 172.783 49.5564 172.783C51.048 172.783 51.1129 172.913 50.5292 174.664C49.297 178.166 53.7718 196.973 58.4412 208.127C61.8783 216.234 68.4284 228.102 74.719 237.57C78.7398 243.601 92.0993 260.333 92.8775 260.333C93.1369 260.333 92.5532 258.582 91.4508 256.442C87.6894 249.049 87.0408 241.461 89.3107 233.744C91.2562 227.324 99.4924 220.19 106.885 218.374C112.398 217.077 118.948 217.207 123.877 218.763C129.065 220.384 137.236 225.378 142.035 229.788C143.981 231.604 145.926 233.095 146.38 233.095C147.418 233.095 162.788 226.805 163.761 225.962C164.539 225.313 164.085 220.903 161.88 209.424C161.361 206.571 160.713 202.42 160.518 200.215L160.064 196.26L171.024 190.942C176.99 187.958 184.448 184.456 187.496 183.159C190.544 181.798 195.927 179.268 199.494 177.452C202.996 175.701 207.73 173.561 210 172.783C213.502 171.486 214.215 171.421 214.929 172.199C215.383 172.718 217.458 176.739 219.468 181.214C225.564 194.703 230.753 199.697 242.556 203.523C253.321 207.025 260.909 207.998 273.944 207.609C286.006 207.284 292.167 206.117 299.885 202.615C304.489 200.54 309.872 195.157 311.234 191.201C311.753 189.839 312.336 184.716 312.531 179.917L312.92 171.162L316.941 170.967C321.48 170.773 321.416 170.708 324.788 176.48C331.338 187.505 333.348 190.358 337.888 194.833C341.455 198.4 344.049 200.345 347.616 202.031C357.214 206.701 367.979 209.1 379.393 209.23C385.684 209.295 386.527 209.165 390.742 207.284C395.152 205.339 395.282 205.339 395.476 206.636C395.736 208.063 394.633 209.1 392.817 209.1C392.169 209.1 391.131 209.619 390.483 210.268C389.315 211.305 389.251 212.797 389.251 233.42C389.251 254.691 388.926 260.722 386.527 281.734C384.452 299.893 382.376 309.945 379.653 314.614C377.577 318.181 372.843 322.202 368.109 324.537C364.542 326.223 353.5 328.732 345.67 330.762L353.5 328.79C359.012 330.087 345.67 329.725 345.67 330.762C345.67 331.411 337.369 331.8 337.045 331.8C334.44 332.066 335.341 331.974 337.045 331.8C335.942 330.827 333.283 330.633 315.579 330.308C295.345 329.854 277.057 328.557 266.227 326.742C254.683 324.796 253.191 324.537 249.365 323.564C247.225 322.98 241.518 321.683 236.719 320.581C228.548 318.765 225.694 318.051 214.669 314.614C200.207 310.204 185.486 302.552 174.721 293.862C171.673 291.397 169.078 289.517 168.884 289.646C168.3 290.23 175.499 299.05 180.752 304.303C194.111 317.597 219.339 329.465 244.825 334.459C260.13 337.507 264.411 337.831 285.682 337.766C303.581 337.702 306.564 337.507 312.92 336.275C325.696 333.746 331.986 332.708 332.375 333.032C332.57 333.227 332.894 337.183 333.089 341.787C334.256 369.09 339.444 384.395 351.701 396.717C356.241 401.191 356.241 401.97 351.701 408.585C350.08 410.984 347.356 415.329 345.605 418.312C341.649 425.252 335.813 432.904 331.338 437.119C326.733 441.4 314.347 449.441 303.127 455.473C298.134 458.131 292.232 461.439 289.962 462.866C285.682 465.46 282.375 466.303 279.521 465.33ZM147.548 306.897C147.288 304.627 146.38 299.633 145.537 295.677C144.629 291.786 143.592 286.663 143.138 284.328L142.359 280.113L134.902 279.659C123.552 279.011 111.814 275.055 102.67 268.958C97.0929 265.197 97.028 265.132 97.8062 266.559C99.9463 270.385 117.781 287.052 133.151 299.569C136.653 302.422 141.192 306.119 143.203 307.805C145.213 309.491 147.159 310.853 147.418 310.853C147.742 310.918 147.807 309.102 147.548 306.897Z" fill="#272933"/>
<path d="M448.136 455.537C448.136 453.722 448.266 453.592 450.6 453.592H453L450.925 455.537C449.757 456.64 448.72 457.483 448.525 457.483C448.266 457.483 448.136 456.64 448.136 455.537Z" fill="#272933"/>
<path d="M448.136 455.537C448.136 453.722 448.266 453.592 450.6 453.592H453L450.925 455.537C449.757 456.64 448.72 457.483 448.525 457.483C448.266 457.483 448.136 456.64 448.136 455.537Z" fill="#272933"/>
<path d="M371.611 205.792C363.699 204.495 361.235 203.847 361.235 202.874C361.235 201.707 361.299 201.707 371.157 203.069C378.161 204.041 379.393 204.366 379.393 205.338C379.393 206.635 377.642 206.765 371.611 205.792Z" fill="#272933"/>
<path d="M371.611 205.792C363.699 204.495 361.235 203.847 361.235 202.874C361.235 201.707 361.299 201.707 371.157 203.069C378.161 204.041 379.393 204.366 379.393 205.338C379.393 206.635 377.642 206.765 371.611 205.792Z" fill="#272933"/>
<path d="M381.339 205.274C381.339 204.106 381.728 203.912 383.803 203.912C385.1 203.912 387.5 203.328 389.056 202.615C390.612 201.902 392.169 201.318 392.623 201.318C393.401 201.318 394.633 198.205 395.801 193.341C397.162 187.634 394.114 175.377 390.288 171.227C389.64 170.513 389.121 168.957 389.121 167.725C389.121 165.455 389.121 165.455 390.483 166.687C392.882 168.892 396.838 176.869 397.941 181.797C399.173 187.375 398.849 196.195 397.292 199.178C395.217 203.199 391.391 205.404 385.1 206.182C381.533 206.636 381.339 206.571 381.339 205.274Z" fill="#272933"/>
<path d="M381.339 205.274C381.339 204.106 381.728 203.912 383.803 203.912C385.1 203.912 387.5 203.328 389.056 202.615C390.612 201.902 392.169 201.318 392.623 201.318C393.401 201.318 394.633 198.205 395.801 193.341C397.162 187.634 394.114 175.377 390.288 171.227C389.64 170.513 389.121 168.957 389.121 167.725C389.121 165.455 389.121 165.455 390.483 166.687C392.882 168.892 396.838 176.869 397.941 181.797C399.173 187.375 398.849 196.195 397.292 199.178C395.217 203.199 391.391 205.404 385.1 206.182C381.533 206.636 381.339 206.571 381.339 205.274Z" fill="#272933"/>
<path d="M262.53 204.107C261.882 203.977 261.363 203.394 261.363 202.875C261.363 202.161 262.336 201.967 265.254 201.967C268.691 201.967 269.145 202.097 269.145 203.264C269.145 204.366 268.756 204.561 266.421 204.496C264.865 204.431 263.114 204.301 262.53 204.107Z" fill="#272933"/>
<path d="M262.53 204.107C261.882 203.977 261.363 203.394 261.363 202.875C261.363 202.161 262.336 201.967 265.254 201.967C268.691 201.967 269.145 202.097 269.145 203.264C269.145 204.366 268.756 204.561 266.421 204.496C264.865 204.431 263.114 204.301 262.53 204.107Z" fill="#272933"/>
<path d="M272.388 203.264C272.388 202.097 272.842 201.967 276.603 201.967C279.781 201.967 280.818 202.161 280.818 202.875C280.818 203.977 278.808 204.561 275.176 204.561C272.842 204.561 272.388 204.366 272.388 203.264Z" fill="#272933"/>
<path d="M272.388 203.264C272.388 202.097 272.842 201.967 276.603 201.967C279.781 201.967 280.818 202.161 280.818 202.875C280.818 203.977 278.808 204.561 275.176 204.561C272.842 204.561 272.388 204.366 272.388 203.264Z" fill="#272933"/>
<path d="M255.202 203.523C247.809 202.031 247.095 201.837 247.095 200.864C247.095 200.021 247.614 199.956 250.014 200.28C251.635 200.475 254.229 200.864 255.85 201.059C258.12 201.383 258.769 201.772 258.769 202.68C258.769 203.912 258.055 204.042 255.202 203.523Z" fill="#272933"/>
<path d="M255.202 203.523C247.809 202.031 247.095 201.837 247.095 200.864C247.095 200.021 247.614 199.956 250.014 200.28C251.635 200.475 254.229 200.864 255.85 201.059C258.12 201.383 258.769 201.772 258.769 202.68C258.769 203.912 258.055 204.042 255.202 203.523Z" fill="#272933"/>
<path d="M281.467 202.745C281.467 201.642 282.115 201.383 286.006 200.994C288.535 200.734 290.546 200.28 290.546 199.956C290.546 199.632 291.259 199.372 292.167 199.372C293.075 199.372 293.788 199.113 293.788 198.789C293.788 198.464 294.761 197.816 295.929 197.362C298.588 196.389 302.868 191.266 304.295 187.245C306.499 180.954 304.878 168.827 301.506 166.428C300.857 165.974 300.274 165.131 300.274 164.612C300.274 164.093 299.69 163.704 298.977 163.704C298.263 163.704 297.68 163.444 297.68 163.055C297.68 162.731 297.29 162.407 296.772 162.407C296.253 162.407 295.734 162.147 295.604 161.888C295.021 160.461 282.829 156.57 278.937 156.57C277.316 156.57 276.927 156.311 276.927 155.208C276.927 153.976 277.186 153.911 280.364 154.3C292.621 155.857 302.219 160.98 305.786 167.919C307.667 171.551 307.732 172.07 307.732 179.852C307.667 188.866 307.083 191.006 303.451 195.157C299.885 199.178 292.427 202.55 284.58 203.588C281.791 203.977 281.467 203.847 281.467 202.745Z" fill="#272933"/>
<path d="M281.467 202.745C281.467 201.642 282.115 201.383 286.006 200.994C288.535 200.734 290.546 200.28 290.546 199.956C290.546 199.632 291.259 199.372 292.167 199.372C293.075 199.372 293.788 199.113 293.788 198.789C293.788 198.464 294.761 197.816 295.929 197.362C298.588 196.389 302.868 191.266 304.295 187.245C306.499 180.954 304.878 168.827 301.506 166.428C300.857 165.974 300.274 165.131 300.274 164.612C300.274 164.093 299.69 163.704 298.977 163.704C298.263 163.704 297.68 163.444 297.68 163.055C297.68 162.731 297.29 162.407 296.772 162.407C296.253 162.407 295.734 162.147 295.604 161.888C295.021 160.461 282.829 156.57 278.937 156.57C277.316 156.57 276.927 156.311 276.927 155.208C276.927 153.976 277.186 153.911 280.364 154.3C292.621 155.857 302.219 160.98 305.786 167.919C307.667 171.551 307.732 172.07 307.732 179.852C307.667 188.866 307.083 191.006 303.451 195.157C299.885 199.178 292.427 202.55 284.58 203.588C281.791 203.977 281.467 203.847 281.467 202.745Z" fill="#272933"/>
<path d="M357.344 202.81C354.62 201.837 348.135 198.335 347.162 197.297C346.189 196.195 346.254 196.13 348.459 196.13C350.145 196.13 350.858 196.389 350.858 197.103C350.858 197.686 351.442 198.075 352.48 198.075C353.388 198.075 354.101 198.335 354.101 198.659C354.101 198.983 355.139 199.437 356.371 199.632C358.251 200.021 358.641 200.345 358.641 201.642C358.641 202.55 358.576 203.264 358.511 203.199C358.381 203.199 357.862 203.004 357.344 202.81Z" fill="#272933"/>
<path d="M357.344 202.81C354.62 201.837 348.135 198.335 347.162 197.297C346.189 196.195 346.254 196.13 348.459 196.13C350.145 196.13 350.858 196.389 350.858 197.103C350.858 197.686 351.442 198.075 352.48 198.075C353.388 198.075 354.101 198.335 354.101 198.659C354.101 198.983 355.139 199.437 356.371 199.632C358.251 200.021 358.641 200.345 358.641 201.642C358.641 202.55 358.576 203.264 358.511 203.199C358.381 203.199 357.862 203.004 357.344 202.81Z" fill="#272933"/>
<path d="M242.231 199.826C236.784 197.362 235.227 196.389 231.985 193.212C228.288 189.515 224.073 181.149 223.424 176.22C223.035 173.043 223.1 172.783 224.332 172.783C225.37 172.783 225.694 173.172 225.694 174.405C225.694 175.312 226.278 177.517 226.991 179.398C227.705 181.279 228.288 183.484 228.288 184.327C228.288 185.17 228.677 185.754 229.261 185.754C229.78 185.754 230.234 186.208 230.234 186.726C230.234 187.245 230.558 187.699 230.882 187.699C231.271 187.699 231.531 188.218 231.531 188.931C231.531 189.58 232.114 190.293 232.828 190.488C233.736 190.682 234.125 191.396 234.125 192.498C234.125 193.925 234.384 194.184 236.07 194.184C237.367 194.184 238.016 194.509 238.016 195.157C238.016 195.741 238.6 196.13 239.637 196.13C240.675 196.13 241.259 196.519 241.259 197.103C241.259 197.751 241.972 198.075 243.528 198.075C245.539 198.075 245.798 198.27 245.798 199.697C245.798 200.605 245.733 201.318 245.668 201.318C245.539 201.253 244.047 200.605 242.231 199.826Z" fill="#272933"/>
<path d="M242.231 199.826C236.784 197.362 235.227 196.389 231.985 193.212C228.288 189.515 224.073 181.149 223.424 176.22C223.035 173.043 223.1 172.783 224.332 172.783C225.37 172.783 225.694 173.172 225.694 174.405C225.694 175.312 226.278 177.517 226.991 179.398C227.705 181.279 228.288 183.484 228.288 184.327C228.288 185.17 228.677 185.754 229.261 185.754C229.78 185.754 230.234 186.208 230.234 186.726C230.234 187.245 230.558 187.699 230.882 187.699C231.271 187.699 231.531 188.218 231.531 188.931C231.531 189.58 232.114 190.293 232.828 190.488C233.736 190.682 234.125 191.396 234.125 192.498C234.125 193.925 234.384 194.184 236.07 194.184C237.367 194.184 238.016 194.509 238.016 195.157C238.016 195.741 238.6 196.13 239.637 196.13C240.675 196.13 241.259 196.519 241.259 197.103C241.259 197.751 241.972 198.075 243.528 198.075C245.539 198.075 245.798 198.27 245.798 199.697C245.798 200.605 245.733 201.318 245.668 201.318C245.539 201.253 244.047 200.605 242.231 199.826Z" fill="#272933"/>
<path d="M400.47 197.297C401.248 191.849 401.572 190.941 402.48 190.941C403.453 190.941 403.648 193.406 402.999 197.621C402.675 199.437 402.286 200.021 401.313 200.021C400.146 200.021 400.081 199.696 400.47 197.297Z" fill="#272933"/>
<path d="M400.47 197.297C401.248 191.849 401.572 190.941 402.48 190.941C403.453 190.941 403.648 193.406 402.999 197.621C402.675 199.437 402.286 200.021 401.313 200.021C400.146 200.021 400.081 199.696 400.47 197.297Z" fill="#272933"/>
<path d="M341.714 192.952C339.055 190.617 334.645 184.78 334.645 183.613C334.645 183.354 335.359 183.159 336.267 183.159C337.304 183.159 337.888 183.548 337.888 184.132C337.888 184.651 338.212 185.105 338.536 185.105C338.925 185.105 339.185 185.364 339.185 185.688C339.185 186.013 340.547 187.634 342.168 189.19C344.503 191.46 345.086 192.433 344.892 193.86L344.697 195.611L341.714 192.952Z" fill="#272933"/>
<path d="M341.714 192.952C339.055 190.617 334.645 184.78 334.645 183.613C334.645 183.354 335.359 183.159 336.267 183.159C337.304 183.159 337.888 183.548 337.888 184.132C337.888 184.651 338.212 185.105 338.536 185.105C338.925 185.105 339.185 185.364 339.185 185.688C339.185 186.013 340.547 187.634 342.168 189.19C344.503 191.46 345.086 192.433 344.892 193.86L344.697 195.611L341.714 192.952Z" fill="#272933"/>
<path d="M158.508 188.672C157.535 186.207 158.702 180.111 160.972 175.312C163.371 170.254 165.576 161.564 166.419 153.976C166.679 151.641 167.133 149.047 167.392 148.269C167.716 147.426 172.321 142.173 177.704 136.596C183.022 130.954 188.534 124.598 189.961 122.393C191.387 120.123 192.879 118.308 193.268 118.308C193.592 118.308 194.371 119.215 194.954 120.383C197.224 124.728 205.201 129.916 208.443 129.073C210.519 128.554 220.636 121.745 225.37 117.724C227.445 115.908 229.585 114.416 230.039 114.416C230.623 114.416 230.882 115.324 230.882 117.011C230.882 118.502 231.336 120.513 231.79 121.485C233.087 123.885 237.108 127.387 238.664 127.387C240.61 127.387 250.857 120.123 256.045 115.065C260.779 110.46 262.206 109.812 262.465 112.211C262.53 112.86 262.789 115.324 262.984 117.659C263.568 123.625 263.827 123.885 267.264 122.328C269.988 121.161 274.203 117.075 283.801 106.44C288.211 101.576 287.433 101.77 296.058 103.781C303.451 105.467 320.637 115.519 337.369 127.906C340.806 130.435 344.762 133.094 346.254 133.807C347.68 134.585 348.913 135.299 348.913 135.428C348.913 135.623 347.226 136.207 345.216 136.79C337.823 138.93 331.467 141.719 330.106 143.405C328.549 145.416 328.419 148.334 329.911 149.501C332.181 151.447 342.427 149.566 356.5 144.573C357.603 144.183 353.777 138.023 351.377 136.272C349.821 135.169 349.561 134.456 349.561 131.991C349.561 129.397 349.95 128.489 352.479 125.441C354.101 123.496 356.435 119.929 357.668 117.594C360.132 112.86 362.272 111.304 364.672 112.536C366.682 113.573 368.368 115.778 368.368 117.529C368.368 118.502 368.757 118.956 369.665 118.956C370.379 118.956 371.157 118.567 371.287 118.178C371.935 116.492 372 110.136 371.416 106.958C370.508 101.705 364.088 90.1618 358.64 83.9361L356.695 81.6662L358.381 81.4717C360.327 81.2123 363.829 84.4549 363.829 86.5301C363.829 87.2435 364.283 87.8272 364.801 87.8272C365.32 87.8272 365.774 88.2811 365.774 88.7999C365.774 89.3188 366.034 89.7727 366.423 89.7727C366.747 89.7727 367.201 90.4861 367.46 91.394C367.655 92.3019 368.109 93.0153 368.368 93.0153C368.628 93.0153 369.989 95.2203 371.351 98.0089C373.816 102.808 373.881 103.132 374.14 110.979C374.335 117.983 374.205 118.956 373.297 118.956C372.713 118.956 372.259 119.475 372.259 120.253C372.259 121.356 371.805 121.55 369.665 121.55C367.525 121.55 367.071 121.356 367.071 120.253C367.071 119.54 366.812 118.956 366.423 118.956C366.098 118.956 365.774 118.502 365.774 117.983C365.774 117.464 365.126 116.362 364.412 115.649C362.856 114.092 362.856 114.092 360.456 118.632C359.743 120.059 358.9 121.356 358.705 121.55C358.446 121.745 357.927 122.653 357.538 123.69C357.084 124.663 356.435 125.441 356.046 125.441C355.722 125.441 355.398 125.83 355.398 126.349C355.398 126.868 354.62 127.906 353.712 128.619C352.155 129.851 352.09 130.175 352.479 133.483C352.933 136.855 353.063 137.05 354.879 137.244C356.889 137.439 357.149 137.828 360.91 145.675C361.818 147.685 363.115 149.761 363.699 150.28C364.283 150.798 367.266 151.706 370.314 152.29C376.345 153.522 379.004 154.236 383.154 155.727C385.295 156.505 385.878 157.089 385.878 158.256V159.813L382.506 158.451C372.519 154.495 363.958 153.068 352.479 153.522C347.486 153.782 341.584 154.365 339.315 154.884C334.645 156.051 328.614 158.97 325.566 161.564C323.685 163.12 322.712 163.38 318.627 163.574C311.947 163.963 310.131 163.444 304.489 159.748C298.977 156.116 294.372 153.911 289.768 152.809C280.559 150.539 260.909 149.242 248.587 150.15C234.255 151.123 226.732 153.263 219.728 158.256C217.458 159.813 210.389 163.704 203.969 166.946C197.548 170.124 185.162 176.545 176.407 181.214C167.652 185.818 160.129 189.645 159.675 189.645C159.221 189.645 158.702 189.191 158.508 188.672ZM283.931 145.87C286.266 143.924 286.071 142.238 283.347 140.292C280.624 138.347 269.988 134.974 257.99 132.186C248.198 129.851 246.706 129.721 237.367 129.657C226.213 129.657 221.349 130.694 213.826 134.715C207.146 138.217 203.644 144.313 207.017 146.453C207.925 147.037 208.638 146.648 210.908 144.443C214.799 140.617 222.192 137.309 228.807 136.401C235.422 135.428 240.221 136.272 255.98 141.135C268.691 145.027 277.835 147.361 280.299 147.426C281.207 147.491 282.893 146.778 283.931 145.87Z" fill="#272933"/>
<path d="M158.508 188.672C157.535 186.207 158.702 180.111 160.972 175.312C163.371 170.254 165.576 161.564 166.419 153.976C166.679 151.641 167.133 149.047 167.392 148.269C167.716 147.426 172.321 142.173 177.704 136.596C183.022 130.954 188.534 124.598 189.961 122.393C191.387 120.123 192.879 118.308 193.268 118.308C193.592 118.308 194.371 119.215 194.954 120.383C197.224 124.728 205.201 129.916 208.443 129.073C210.519 128.554 220.636 121.745 225.37 117.724C227.445 115.908 229.585 114.416 230.039 114.416C230.623 114.416 230.882 115.324 230.882 117.011C230.882 118.502 231.336 120.513 231.79 121.485C233.087 123.885 237.108 127.387 238.664 127.387C240.61 127.387 250.857 120.123 256.045 115.065C260.779 110.46 262.206 109.812 262.465 112.211C262.53 112.86 262.789 115.324 262.984 117.659C263.568 123.625 263.827 123.885 267.264 122.328C269.988 121.161 274.203 117.075 283.801 106.44C288.211 101.576 287.433 101.77 296.058 103.781C303.451 105.467 320.637 115.519 337.369 127.906C340.806 130.435 344.762 133.094 346.254 133.807C347.68 134.585 348.913 135.299 348.913 135.428C348.913 135.623 347.226 136.207 345.216 136.79C337.823 138.93 331.467 141.719 330.106 143.405C328.549 145.416 328.419 148.334 329.911 149.501C332.181 151.447 342.427 149.566 356.5 144.573C357.603 144.183 353.777 138.023 351.377 136.272C349.821 135.169 349.561 134.456 349.561 131.991C349.561 129.397 349.95 128.489 352.479 125.441C354.101 123.496 356.435 119.929 357.668 117.594C360.132 112.86 362.272 111.304 364.672 112.536C366.682 113.573 368.368 115.778 368.368 117.529C368.368 118.502 368.757 118.956 369.665 118.956C370.379 118.956 371.157 118.567 371.287 118.178C371.935 116.492 372 110.136 371.416 106.958C370.508 101.705 364.088 90.1618 358.64 83.9361L356.695 81.6662L358.381 81.4717C360.327 81.2123 363.829 84.4549 363.829 86.5301C363.829 87.2435 364.283 87.8272 364.801 87.8272C365.32 87.8272 365.774 88.2811 365.774 88.7999C365.774 89.3188 366.034 89.7727 366.423 89.7727C366.747 89.7727 367.201 90.4861 367.46 91.394C367.655 92.3019 368.109 93.0153 368.368 93.0153C368.628 93.0153 369.989 95.2203 371.351 98.0089C373.816 102.808 373.881 103.132 374.14 110.979C374.335 117.983 374.205 118.956 373.297 118.956C372.713 118.956 372.259 119.475 372.259 120.253C372.259 121.356 371.805 121.55 369.665 121.55C367.525 121.55 367.071 121.356 367.071 120.253C367.071 119.54 366.812 118.956 366.423 118.956C366.098 118.956 365.774 118.502 365.774 117.983C365.774 117.464 365.126 116.362 364.412 115.649C362.856 114.092 362.856 114.092 360.456 118.632C359.743 120.059 358.9 121.356 358.705 121.55C358.446 121.745 357.927 122.653 357.538 123.69C357.084 124.663 356.435 125.441 356.046 125.441C355.722 125.441 355.398 125.83 355.398 126.349C355.398 126.868 354.62 127.906 353.712 128.619C352.155 129.851 352.09 130.175 352.479 133.483C352.933 136.855 353.063 137.05 354.879 137.244C356.889 137.439 357.149 137.828 360.91 145.675C361.818 147.685 363.115 149.761 363.699 150.28C364.283 150.798 367.266 151.706 370.314 152.29C376.345 153.522 379.004 154.236 383.154 155.727C385.295 156.505 385.878 157.089 385.878 158.256V159.813L382.506 158.451C372.519 154.495 363.958 153.068 352.479 153.522C347.486 153.782 341.584 154.365 339.315 154.884C334.645 156.051 328.614 158.97 325.566 161.564C323.685 163.12 322.712 163.38 318.627 163.574C311.947 163.963 310.131 163.444 304.489 159.748C298.977 156.116 294.372 153.911 289.768 152.809C280.559 150.539 260.909 149.242 248.587 150.15C234.255 151.123 226.732 153.263 219.728 158.256C217.458 159.813 210.389 163.704 203.969 166.946C197.548 170.124 185.162 176.545 176.407 181.214C167.652 185.818 160.129 189.645 159.675 189.645C159.221 189.645 158.702 189.191 158.508 188.672ZM283.931 145.87C286.266 143.924 286.071 142.238 283.347 140.292C280.624 138.347 269.988 134.974 257.99 132.186C248.198 129.851 246.706 129.721 237.367 129.657C226.213 129.657 221.349 130.694 213.826 134.715C207.146 138.217 203.644 144.313 207.017 146.453C207.925 147.037 208.638 146.648 210.908 144.443C214.799 140.617 222.192 137.309 228.807 136.401C235.422 135.428 240.221 136.272 255.98 141.135C268.691 145.027 277.835 147.361 280.299 147.426C281.207 147.491 282.893 146.778 283.931 145.87Z" fill="#272933"/>
<path d="M331.727 178.166C329.198 172.849 328.355 167.271 329.652 164.288C331.208 160.592 337.953 157.998 349.432 156.83C353.128 156.441 353.453 156.506 353.453 157.673C353.453 158.776 352.869 159.035 349.237 159.359C343.206 159.943 337.045 161.24 336.072 162.213C335.618 162.667 334.84 163.056 334.386 163.056C333.932 163.056 333.024 164.029 332.376 165.261C331.273 167.271 331.273 167.855 331.987 170.644C332.441 172.33 332.959 174.535 333.154 175.572C333.348 176.545 333.738 177.323 334.062 177.323C334.386 177.323 334.646 178.361 334.646 179.593C334.646 180.825 334.386 181.863 334.062 181.863C333.738 181.863 332.7 180.177 331.727 178.166Z" fill="#272933"/>
<path d="M331.727 178.166C329.198 172.849 328.355 167.271 329.652 164.288C331.208 160.592 337.953 157.998 349.432 156.83C353.128 156.441 353.453 156.506 353.453 157.673C353.453 158.776 352.869 159.035 349.237 159.359C343.206 159.943 337.045 161.24 336.072 162.213C335.618 162.667 334.84 163.056 334.386 163.056C333.932 163.056 333.024 164.029 332.376 165.261C331.273 167.271 331.273 167.855 331.987 170.644C332.441 172.33 332.959 174.535 333.154 175.572C333.348 176.545 333.738 177.323 334.062 177.323C334.386 177.323 334.646 178.361 334.646 179.593C334.646 180.825 334.386 181.863 334.062 181.863C333.738 181.863 332.7 180.177 331.727 178.166Z" fill="#272933"/>
<path d="M400.794 175.571C399.692 170.253 398.265 167.594 395.152 165.325C393.661 164.287 392.428 163.184 392.428 162.925C392.364 162.601 393.336 162.406 394.569 162.406C399.108 162.406 402.286 167.27 403.194 175.571C403.518 178.684 403.388 179.268 402.545 179.268C401.832 179.268 401.313 178.23 400.794 175.571Z" fill="#272933"/>
<path d="M400.794 175.571C399.692 170.253 398.265 167.594 395.152 165.325C393.661 164.287 392.428 163.184 392.428 162.925C392.364 162.601 393.336 162.406 394.569 162.406C399.108 162.406 402.286 167.27 403.194 175.571C403.518 178.684 403.388 179.268 402.545 179.268C401.832 179.268 401.313 178.23 400.794 175.571Z" fill="#272933"/>
<path d="M50.594 169.216C50.594 167.206 50.7885 166.946 52.2153 166.946C54.096 166.946 54.1608 167.076 52.8638 169.54C51.5019 172.134 50.594 172.005 50.594 169.216Z" fill="#272933"/>
<path d="M50.594 169.216C50.594 167.206 50.7885 166.946 52.2153 166.946C54.096 166.946 54.1608 167.076 52.8638 169.54C51.5019 172.134 50.594 172.005 50.594 169.216Z" fill="#272933"/>
<path d="M223.1 169.086C223.1 161.758 227.315 157.867 238.146 155.273C244.825 153.651 245.798 153.651 245.798 155.143C245.798 156.051 244.89 156.44 241.453 157.089C238.989 157.543 235.487 158.645 233.541 159.488C231.661 160.396 229.65 161.109 229.196 161.109C228.677 161.109 228.288 161.563 228.288 162.082C228.288 162.536 227.834 163.25 227.315 163.574C226.732 163.898 226.148 165.454 225.889 167.465C225.564 170.189 225.305 170.837 224.332 170.837C223.424 170.837 223.1 170.383 223.1 169.086Z" fill="#272933"/>
<path d="M223.1 169.086C223.1 161.758 227.315 157.867 238.146 155.273C244.825 153.651 245.798 153.651 245.798 155.143C245.798 156.051 244.89 156.44 241.453 157.089C238.989 157.543 235.487 158.645 233.541 159.488C231.661 160.396 229.65 161.109 229.196 161.109C228.677 161.109 228.288 161.563 228.288 162.082C228.288 162.536 227.834 163.25 227.315 163.574C226.732 163.898 226.148 165.454 225.889 167.465C225.564 170.189 225.305 170.837 224.332 170.837C223.424 170.837 223.1 170.383 223.1 169.086Z" fill="#272933"/>
<path d="M381.922 163.705C378.42 161.889 370.638 159.813 365.32 159.359C361.17 159.035 360.586 158.841 360.586 157.673C360.586 156.441 360.91 156.441 365.32 156.83C374.724 157.673 385.359 161.046 387.759 163.964C388.537 164.872 388.343 165.002 386.462 165.002C385.23 164.937 383.219 164.353 381.922 163.705Z" fill="#272933"/>
<path d="M381.922 163.705C378.42 161.889 370.638 159.813 365.32 159.359C361.17 159.035 360.586 158.841 360.586 157.673C360.586 156.441 360.91 156.441 365.32 156.83C374.724 157.673 385.359 161.046 387.759 163.964C388.537 164.872 388.343 165.002 386.462 165.002C385.23 164.937 383.219 164.353 381.922 163.705Z" fill="#272933"/>
<path d="M388.343 161.239C385.943 159.813 386.073 159.164 388.797 159.164C390.807 159.164 391.066 159.359 391.066 160.785C391.066 162.666 390.677 162.731 388.343 161.239Z" fill="#272933"/>
<path d="M388.343 161.239C385.943 159.813 386.073 159.164 388.797 159.164C390.807 159.164 391.066 159.359 391.066 160.785C391.066 162.666 390.677 162.731 388.343 161.239Z" fill="#272933"/>
<path d="M55.7822 159.878C55.7822 156.96 56.4307 155.922 58.1169 155.922C59.9976 155.922 59.9976 156.116 58.2466 159.229C56.5604 162.213 55.7822 162.472 55.7822 159.878Z" fill="#272933"/>
<path d="M55.7822 159.878C55.7822 156.96 56.4307 155.922 58.1169 155.922C59.9976 155.922 59.9976 156.116 58.2466 159.229C56.5604 162.213 55.7822 162.472 55.7822 159.878Z" fill="#272933"/>
<path d="M247.095 155.014C247.095 154.041 249.041 153.328 251.829 153.328C253.126 153.328 253.58 153.652 253.58 154.625C253.58 155.728 253.126 155.922 250.338 155.922C248.003 155.922 247.095 155.663 247.095 155.014Z" fill="#272933"/>
<path d="M247.095 155.014C247.095 154.041 249.041 153.328 251.829 153.328C253.126 153.328 253.58 153.652 253.58 154.625C253.58 155.728 253.126 155.922 250.338 155.922C248.003 155.922 247.095 155.663 247.095 155.014Z" fill="#272933"/>
<path d="M266.551 154.625C266.551 153.263 268.042 152.938 270.961 153.717C273.62 154.43 272.647 155.922 269.469 155.922C267.005 155.922 266.551 155.727 266.551 154.625Z" fill="#272933"/>
<path d="M266.551 154.625C266.551 153.263 268.042 152.938 270.961 153.717C273.62 154.43 272.647 155.922 269.469 155.922C267.005 155.922 266.551 155.727 266.551 154.625Z" fill="#272933"/>
<path d="M60.9702 150.409C60.9702 149.177 61.2296 148.139 61.5539 148.139C61.8781 148.139 62.3321 147.426 62.5267 146.518C62.7861 145.61 63.24 144.896 63.5643 144.896C63.9534 144.896 64.2128 144.443 64.2128 143.924C64.2128 143.405 64.4722 142.951 64.7965 142.951C65.1207 142.951 65.5747 142.238 65.7693 141.33C66.0287 140.422 66.4826 139.708 66.8069 139.708C67.196 139.708 67.4554 139.254 67.4554 138.736C67.4554 138.152 67.9094 137.568 68.4282 137.374C68.947 137.114 69.401 136.595 69.401 136.077C69.401 135.558 69.7252 135.169 70.0495 135.169C70.4386 135.169 70.698 134.715 70.698 134.196C70.698 133.677 71.0223 133.223 71.3465 133.223C71.7356 133.223 71.995 132.769 71.995 132.25C71.995 131.732 72.449 131.278 72.9678 131.278C73.4866 131.278 73.9406 130.694 73.9406 129.981C73.9406 129.267 74.3946 128.489 74.9134 128.294C75.4322 128.035 75.8861 127.516 75.8861 126.997C75.8861 126.479 76.5347 126.089 77.5074 126.089C78.8693 126.089 79.1287 125.765 79.1287 124.144C79.1287 122.912 79.453 122.198 80.0367 122.198C80.5555 122.198 81.0743 121.55 81.204 120.772C81.3337 119.604 81.9174 119.215 83.4738 119.085C85.3545 118.891 85.5491 118.631 85.7436 116.491C85.8733 114.546 86.2624 114.027 87.4298 113.897C88.4026 113.768 88.8565 113.249 88.8565 112.276C88.8565 110.59 99.1031 100.149 100.724 100.149C101.308 100.149 101.827 99.5001 101.957 98.7219C102.086 97.5546 102.605 97.1655 104.551 97.0358C106.691 96.8412 106.95 96.6467 107.145 94.766C107.339 92.9501 107.599 92.6907 109.415 92.4962C111.101 92.3016 111.49 91.9773 111.684 90.5506C111.814 89.3184 112.333 88.7348 113.241 88.605C114.019 88.4753 114.797 87.8268 114.992 87.1134C115.186 86.4001 115.9 85.8813 116.678 85.8813C117.521 85.8813 118.04 85.4921 118.04 84.8436C118.04 84.26 118.624 83.6763 119.337 83.4817C120.05 83.2872 120.634 82.8981 120.634 82.5738C120.634 82.2496 121.153 81.9902 121.866 81.9902C122.515 81.9902 123.228 81.4065 123.423 80.6931C123.617 79.9797 124.201 79.3961 124.784 79.3961C125.368 79.3961 125.822 79.1367 125.822 78.7476C125.822 78.4233 126.406 78.099 127.119 78.099C127.833 78.099 128.416 77.6451 128.416 77.1263C128.416 76.6074 128.87 76.1535 129.389 76.1535C129.908 76.1535 130.362 75.8941 130.362 75.505C130.362 75.1807 130.816 74.8564 131.335 74.8564C131.853 74.8564 132.307 74.597 132.307 74.2079C132.307 73.8837 133.215 73.5594 134.253 73.5594C135.744 73.5594 136.198 73.3 136.198 72.2624C136.198 71.2896 136.652 70.9653 137.82 70.9653C138.857 70.9653 139.441 70.5762 139.441 69.9926C139.441 69.4089 140.025 69.0198 141.062 69.0198C142.1 69.0198 142.684 68.6307 142.684 68.047C142.684 67.4633 143.267 67.0742 144.305 67.0742C145.278 67.0742 145.926 66.6851 145.926 66.1663C145.926 65.1935 147.288 64.4801 149.234 64.4801C149.882 64.4801 150.466 64.091 150.466 63.5722C150.466 62.5346 151.828 61.8861 154.098 61.8861C155.005 61.8861 155.654 61.497 155.654 60.9781C155.654 59.8757 157.081 59.292 159.61 59.292C162.334 59.292 161.945 60.2648 158.443 61.9509C153.125 64.4801 140.025 72.2624 133.28 76.8669C118.04 87.2432 105.913 97.6195 92.9422 111.498C80.6203 124.663 73.4218 134.066 63.8237 149.566C62.7861 151.317 61.7484 152.679 61.489 152.679C61.1648 152.679 60.9702 151.641 60.9702 150.409Z" fill="#272933"/>
<path d="M60.9702 150.409C60.9702 149.177 61.2296 148.139 61.5539 148.139C61.8781 148.139 62.3321 147.426 62.5267 146.518C62.7861 145.61 63.24 144.896 63.5643 144.896C63.9534 144.896 64.2128 144.443 64.2128 143.924C64.2128 143.405 64.4722 142.951 64.7965 142.951C65.1207 142.951 65.5747 142.238 65.7693 141.33C66.0287 140.422 66.4826 139.708 66.8069 139.708C67.196 139.708 67.4554 139.254 67.4554 138.736C67.4554 138.152 67.9094 137.568 68.4282 137.374C68.947 137.114 69.401 136.595 69.401 136.077C69.401 135.558 69.7252 135.169 70.0495 135.169C70.4386 135.169 70.698 134.715 70.698 134.196C70.698 133.677 71.0223 133.223 71.3465 133.223C71.7356 133.223 71.995 132.769 71.995 132.25C71.995 131.732 72.449 131.278 72.9678 131.278C73.4866 131.278 73.9406 130.694 73.9406 129.981C73.9406 129.267 74.3946 128.489 74.9134 128.294C75.4322 128.035 75.8861 127.516 75.8861 126.997C75.8861 126.479 76.5347 126.089 77.5074 126.089C78.8693 126.089 79.1287 125.765 79.1287 124.144C79.1287 122.912 79.453 122.198 80.0367 122.198C80.5555 122.198 81.0743 121.55 81.204 120.772C81.3337 119.604 81.9174 119.215 83.4738 119.085C85.3545 118.891 85.5491 118.631 85.7436 116.491C85.8733 114.546 86.2624 114.027 87.4298 113.897C88.4026 113.768 88.8565 113.249 88.8565 112.276C88.8565 110.59 99.1031 100.149 100.724 100.149C101.308 100.149 101.827 99.5001 101.957 98.7219C102.086 97.5546 102.605 97.1655 104.551 97.0358C106.691 96.8412 106.95 96.6467 107.145 94.766C107.339 92.9501 107.599 92.6907 109.415 92.4962C111.101 92.3016 111.49 91.9773 111.684 90.5506C111.814 89.3184 112.333 88.7348 113.241 88.605C114.019 88.4753 114.797 87.8268 114.992 87.1134C115.186 86.4001 115.9 85.8813 116.678 85.8813C117.521 85.8813 118.04 85.4921 118.04 84.8436C118.04 84.26 118.624 83.6763 119.337 83.4817C120.05 83.2872 120.634 82.8981 120.634 82.5738C120.634 82.2496 121.153 81.9902 121.866 81.9902C122.515 81.9902 123.228 81.4065 123.423 80.6931C123.617 79.9797 124.201 79.3961 124.784 79.3961C125.368 79.3961 125.822 79.1367 125.822 78.7476C125.822 78.4233 126.406 78.099 127.119 78.099C127.833 78.099 128.416 77.6451 128.416 77.1263C128.416 76.6074 128.87 76.1535 129.389 76.1535C129.908 76.1535 130.362 75.8941 130.362 75.505C130.362 75.1807 130.816 74.8564 131.335 74.8564C131.853 74.8564 132.307 74.597 132.307 74.2079C132.307 73.8837 133.215 73.5594 134.253 73.5594C135.744 73.5594 136.198 73.3 136.198 72.2624C136.198 71.2896 136.652 70.9653 137.82 70.9653C138.857 70.9653 139.441 70.5762 139.441 69.9926C139.441 69.4089 140.025 69.0198 141.062 69.0198C142.1 69.0198 142.684 68.6307 142.684 68.047C142.684 67.4633 143.267 67.0742 144.305 67.0742C145.278 67.0742 145.926 66.6851 145.926 66.1663C145.926 65.1935 147.288 64.4801 149.234 64.4801C149.882 64.4801 150.466 64.091 150.466 63.5722C150.466 62.5346 151.828 61.8861 154.098 61.8861C155.005 61.8861 155.654 61.497 155.654 60.9781C155.654 59.8757 157.081 59.292 159.61 59.292C162.334 59.292 161.945 60.2648 158.443 61.9509C153.125 64.4801 140.025 72.2624 133.28 76.8669C118.04 87.2432 105.913 97.6195 92.9422 111.498C80.6203 124.663 73.4218 134.066 63.8237 149.566C62.7861 151.317 61.7484 152.679 61.489 152.679C61.1648 152.679 60.9702 151.641 60.9702 150.409Z" fill="#272933"/>
<path d="M349.042 73.9479C347.227 71.5484 347.616 70.1865 351.053 66.6196C352.48 65.0632 353.517 63.7013 353.323 63.5067C353.128 63.2473 350.793 62.7933 348.134 62.4691C339.769 61.3666 328.809 58.578 328.809 57.6052C328.809 56.373 330.949 56.4379 337.499 57.9943C340.482 58.7077 345.67 59.6156 348.913 60.0696L354.879 60.8478L354.49 64.4146C354.166 66.9439 353.582 68.5003 352.48 69.6676C351.636 70.5756 350.858 72.2617 350.729 73.5588L350.534 75.8286L349.042 73.9479Z" fill="#272933"/>
<path d="M349.042 73.9479C347.227 71.5484 347.616 70.1865 351.053 66.6196C352.48 65.0632 353.517 63.7013 353.323 63.5067C353.128 63.2473 350.793 62.7933 348.134 62.4691C339.769 61.3666 328.809 58.578 328.809 57.6052C328.809 56.373 330.949 56.4379 337.499 57.9943C340.482 58.7077 345.67 59.6156 348.913 60.0696L354.879 60.8478L354.49 64.4146C354.166 66.9439 353.582 68.5003 352.48 69.6676C351.636 70.5756 350.858 72.2617 350.729 73.5588L350.534 75.8286L349.042 73.9479Z" fill="#272933"/>
<path d="M163.436 57.6711C163.436 56.2444 163.696 56.0498 165.771 56.0498C168.624 56.0498 168.495 57.2171 165.512 58.4493C163.501 59.2924 163.436 59.2275 163.436 57.6711Z" fill="#272933"/>
<path d="M163.436 57.6711C163.436 56.2444 163.696 56.0498 165.771 56.0498C168.624 56.0498 168.495 57.2171 165.512 58.4493C163.501 59.2924 163.436 59.2275 163.436 57.6711Z" fill="#272933"/>
<path d="M324.788 57.5415C322.648 57.0227 323.491 55.4014 325.89 55.4014C327.706 55.4014 328.16 55.6608 328.16 56.6984C328.16 57.9954 327.252 58.19 324.788 57.5415Z" fill="#272933"/>
<path d="M324.788 57.5415C322.648 57.0227 323.491 55.4014 325.89 55.4014C327.706 55.4014 328.16 55.6608 328.16 56.6984C328.16 57.9954 327.252 58.19 324.788 57.5415Z" fill="#272933"/>
<path d="M169.273 55.0771C169.273 53.6504 169.533 53.4558 171.543 53.4558C173.099 53.4558 173.813 53.1316 173.813 52.483C173.813 51.8994 174.396 51.5103 175.434 51.5103C176.342 51.5103 177.055 51.2508 177.055 50.8617C177.055 50.5375 177.769 50.2132 178.677 50.2132C179.585 50.2132 180.298 49.9538 180.298 49.6944C180.298 48.981 184.773 47.6191 187.043 47.6191C190.48 47.6191 188.34 49.1756 181.206 51.8994C177.315 53.391 173.035 55.0771 171.738 55.6608L169.273 56.6984V55.0771Z" fill="#272933"/>
<path d="M169.273 55.0771C169.273 53.6504 169.533 53.4558 171.543 53.4558C173.099 53.4558 173.813 53.1316 173.813 52.483C173.813 51.8994 174.396 51.5103 175.434 51.5103C176.342 51.5103 177.055 51.2508 177.055 50.8617C177.055 50.5375 177.769 50.2132 178.677 50.2132C179.585 50.2132 180.298 49.9538 180.298 49.6944C180.298 48.981 184.773 47.6191 187.043 47.6191C190.48 47.6191 188.34 49.1756 181.206 51.8994C177.315 53.391 173.035 55.0771 171.738 55.6608L169.273 56.6984V55.0771Z" fill="#272933"/>
<path d="M309.742 52.9366C300.857 49.8885 303.127 48.2023 312.336 51.0558C315.903 52.0935 317.135 52.742 317.135 53.6499C317.135 55.1415 315.773 55.0118 309.742 52.9366Z" fill="#272933"/>
<path d="M309.742 52.9366C300.857 49.8885 303.127 48.2023 312.336 51.0558C315.903 52.0935 317.135 52.742 317.135 53.6499C317.135 55.1415 315.773 55.0118 309.742 52.9366Z" fill="#272933"/>
<path d="M299.236 49.3049C297.031 48.5267 294.307 47.2945 293.075 46.5811C291.13 45.4138 290.87 44.9598 290.935 42.69C290.935 41.3281 291.195 39.642 291.454 39.0583C291.843 38.2152 291.584 37.8261 290.287 37.5018C287.822 36.9182 288.146 35.2969 290.741 35.2969C293.789 35.2969 294.632 36.0751 294.307 38.6043C294.113 39.8365 293.789 41.3281 293.529 41.9118C292.946 43.2088 295.54 45.0246 300.468 46.8405C302.868 47.6836 303.516 48.2024 303.516 49.3697C303.516 50.2128 303.452 50.8613 303.387 50.7965C303.257 50.7965 301.441 50.148 299.236 49.3049Z" fill="#272933"/>
<path d="M299.236 49.3049C297.031 48.5267 294.307 47.2945 293.075 46.5811C291.13 45.4138 290.87 44.9598 290.935 42.69C290.935 41.3281 291.195 39.642 291.454 39.0583C291.843 38.2152 291.584 37.8261 290.287 37.5018C287.822 36.9182 288.146 35.2969 290.741 35.2969C293.789 35.2969 294.632 36.0751 294.307 38.6043C294.113 39.8365 293.789 41.3281 293.529 41.9118C292.946 43.2088 295.54 45.0246 300.468 46.8405C302.868 47.6836 303.516 48.2024 303.516 49.3697C303.516 50.2128 303.452 50.8613 303.387 50.7965C303.257 50.7965 301.441 50.148 299.236 49.3049Z" fill="#272933"/>
<path d="M202.996 43.2091C202.996 41.912 205.071 41.1338 208.573 41.1338C212.01 41.1338 209.676 43.2739 205.396 44.0521C203.256 44.4412 202.996 44.3764 202.996 43.2091Z" fill="#272933"/>
<path d="M202.996 43.2091C202.996 41.912 205.071 41.1338 208.573 41.1338C212.01 41.1338 209.676 43.2739 205.396 44.0521C203.256 44.4412 202.996 44.3764 202.996 43.2091Z" fill="#272933"/>
<path d="M210.778 41.134C210.778 40.0963 211.232 39.8369 213.048 39.8369C215.642 39.8369 216.226 41.3934 213.891 42.0419C211.427 42.6904 210.778 42.4958 210.778 41.134Z" fill="#272933"/>
<path d="M210.778 41.134C210.778 40.0963 211.232 39.8369 213.048 39.8369C215.642 39.8369 216.226 41.3934 213.891 42.0419C211.427 42.6904 210.778 42.4958 210.778 41.134Z" fill="#272933"/>
<path d="M226.991 37.9557C226.991 37.1126 227.38 36.5938 228.159 36.5938C228.742 36.5938 230.817 36.3992 232.698 36.2047C235.487 35.8156 236.07 35.9453 236.07 36.7884C236.07 37.7611 235.292 38.0854 229.78 38.8636C227.251 39.2527 226.991 39.1879 226.991 37.9557Z" fill="#272933"/>
<path d="M226.991 37.9557C226.991 37.1126 227.38 36.5938 228.159 36.5938C228.742 36.5938 230.817 36.3992 232.698 36.2047C235.487 35.8156 236.07 35.9453 236.07 36.7884C236.07 37.7611 235.292 38.0854 229.78 38.8636C227.251 39.2527 226.991 39.1879 226.991 37.9557Z" fill="#272933"/>
<path d="M236.719 36.5939C236.719 35.5563 237.173 35.2969 238.989 35.2969C241.583 35.2969 242.167 36.8533 239.832 37.5018C237.368 38.1504 236.719 37.9558 236.719 36.5939Z" fill="#272933"/>
<path d="M236.719 36.5939C236.719 35.5563 237.173 35.2969 238.989 35.2969C241.583 35.2969 242.167 36.8533 239.832 37.5018C237.368 38.1504 236.719 37.9558 236.719 36.5939Z" fill="#272933"/>
<path d="M244.501 35.9455C244.501 34.9078 244.955 34.6484 246.771 34.6484C249.365 34.6484 249.949 36.2049 247.614 36.8534C245.15 37.5019 244.501 37.3074 244.501 35.9455Z" fill="#272933"/>
<path d="M244.501 35.9455C244.501 34.9078 244.955 34.6484 246.771 34.6484C249.365 34.6484 249.949 36.2049 247.614 36.8534C245.15 37.5019 244.501 37.3074 244.501 35.9455Z" fill="#272933"/>
<path d="M283.283 36.7886C281.143 36.2697 281.986 34.6484 284.385 34.6484C286.201 34.6484 286.655 34.9078 286.655 35.9455C286.655 37.2425 285.747 37.4371 283.283 36.7886Z" fill="#272933"/>
<path d="M283.283 36.7886C281.143 36.2697 281.986 34.6484 284.385 34.6484C286.201 34.6484 286.655 34.9078 286.655 35.9455C286.655 37.2425 285.747 37.4371 283.283 36.7886Z" fill="#272933"/>
<path d="M259.417 35.297C259.417 34.0649 259.871 34 266.551 34C273.23 34 273.684 34.0649 273.684 35.297C273.684 36.5292 273.23 36.5941 266.551 36.5941C259.871 36.5941 259.417 36.5292 259.417 35.297Z" fill="#272933"/>
<path d="M259.417 35.297C259.417 34.0649 259.871 34 266.551 34C273.23 34 273.684 34.0649 273.684 35.297C273.684 36.5292 273.23 36.5941 266.551 36.5941C259.871 36.5941 259.417 36.5292 259.417 35.297Z" fill="#272933"/>
</svg>
